<?xml version="1.0" encoding="UTF-8"?> <svg xmlns="http://www.w3.org/2000/svg" width="681" height="491" fill="none"><g clip-path="url(#a)"><path d="M74.788 391.488c149.575-1.053 317.348-1.071 466.924 0-149.576 1.07-317.349 1.053-466.924 0Z" fill="#1A2E35"></path><path d="M500.82 327.92s17.129-3.884 26.52-12.551c9.392-8.667 14.63-24.187 14.63-24.187s-10.081 1.847-19.214 5.058c-1.533 1.64-4.446 5.024-5.807 8.235 0 0-.293-3.384-.052-5.887-2.447 1.122-4.566 2.383-6.1 3.712-7.789 6.819-9.977 25.638-9.977 25.638v-.018Z" fill="#CF96C6"></path><path d="M531.286 298.709c2.344-1.623 4.705-3.176 7.031-4.817.138-.103 0-.31-.138-.224a213.96 213.96 0 0 0-12.976 8.425 156.132 156.132 0 0 0-4.342 3.194c.103-.173.189-.345.293-.501a80.127 80.127 0 0 1 1.602-2.555c1.086-1.692 2.275-3.366 3.636-4.868.052-.052-.034-.139-.086-.087-1.327 1.537-2.671 3.073-3.877 4.696a30.965 30.965 0 0 0-1.62 2.4l-.775 1.295a9.954 9.954 0 0 0-.259.449 97.43 97.43 0 0 0-6.427 5.472 73.59 73.59 0 0 0-3.671 3.678c.655-2.072 1.241-4.178 2.016-6.215.035-.069-.086-.104-.12-.035-.741 2.141-1.568 4.299-2.137 6.509a70.316 70.316 0 0 0-3.757 4.419c.018-.086.035-.189.069-.276.19-.811.397-1.623.621-2.417.413-1.554.878-3.09 1.395-4.609 1.069-3.125 2.465-6.164 4.601-8.702.052-.051-.034-.138-.086-.086-3.343 3.971-5.307 8.736-6.565 13.725a49.68 49.68 0 0 0-.517 2.193c-.086.397-.19.794-.259 1.191a59.766 59.766 0 0 0-1.516 2.141c-2.981 4.437-5.29 9.288-7.255 14.243-2.206 5.594-3.912 11.36-5.497 17.144-.034.12.138.155.172.051 3.343-10.048 6.773-20.234 12.511-29.211a64.553 64.553 0 0 1 3.912-5.49c2.826-.156 5.669-.777 8.323-1.658a36.955 36.955 0 0 0 8.357-4.039c1.517-.967 2.878-2.107 4.274-3.246.069-.052 0-.138-.069-.086-2.309 1.968-5.101 3.504-7.858 4.765-2.757 1.26-5.669 2.261-8.65 2.9a48.135 48.135 0 0 1-3.826.656 74.173 74.173 0 0 1 5.049-5.611 55.166 55.166 0 0 1 1.775-1.692c1.965-1.433 4.153-2.572 6.324-3.625 2.809-1.364 5.566-2.797 8.341-4.213 1.568-.794 3.119-1.623 4.704-2.382.069-.035 0-.138-.069-.104-2.809 1.364-5.669 2.641-8.513 3.936-2.671 1.226-5.376 2.452-7.944 3.902-.103.069-.206.138-.327.19a136.986 136.986 0 0 1 7.186-5.818 212.143 212.143 0 0 1 6.91-5.024l.034.017Z" fill="#1A2E35"></path><path d="M530.304 307.566c-1.396.604-2.809 1.156-4.187 1.795-1.413.656-2.757 1.45-4.101 2.244-.052.035 0 .121.051.087 1.362-.656 2.757-1.261 4.102-1.951 1.378-.691 2.757-1.45 4.17-2.072.069-.034.034-.138-.035-.103Z" fill="#1A2E35"></path><path d="M445.177 241.425s4.808 5.525 5.118 14.261c.052 1.536-.189 3.677-.362 6.198 6.394 3.418 11.184 9.564 11.184 9.564-3.636-2.175-8.616-3.073-11.304-2.71.086 1.657.293 3.384.655 5.127 1.189-.069 3.48.087 7.272 1.433 0 0-3.723-.086-6.549 1.312 3.05 9.737 12.132 19.734 37.187 23.981 0 0 4.843-17.058-4.446-35.341-7.513-14.795-38.755-23.842-38.755-23.842v.017Z" fill="#CF96C6"></path><path d="M497.046 342.25a249.897 249.897 0 0 0-1.62-12.431 248.428 248.428 0 0 0-5.049-24.584c-.999-3.816-2.188-7.562-3.619-11.205.087-.656.087-1.346.087-2.002 0-.812.017-1.606 0-2.417a65.203 65.203 0 0 0-.224-4.817c-.276-3.16-.759-6.336-1.534-9.409a132.55 132.55 0 0 0-1.517-5.318c-.017-.069-.137-.034-.103.035.879 3.056 1.396 6.25 1.844 9.392.448 3.125.724 6.267.844 9.426.035.863.052 1.726.052 2.59 0 .362 0 .742-.034 1.105-1.241-2.987-2.62-5.922-4.222-8.753-2.534-4.506-5.429-8.771-8.582-12.862.034-.467-.103-.95-.207-1.399-.12-.552-.241-1.122-.362-1.675a75.89 75.89 0 0 0-.861-3.418c-.621-2.279-1.448-4.471-2.154-6.716-.018-.069-.138-.034-.104.035.655 2.227 1.103 4.523 1.603 6.785.258 1.122.5 2.244.741 3.366.121.553.241 1.122.362 1.675 0 .034 0 .086.017.121a164.446 164.446 0 0 0-3.102-3.781c-4.79-5.628-10.029-10.808-15.319-15.97-.655-.638-1.31-1.243-1.982-1.882-.052-.051-.138.035-.086.087 5.049 5.283 10.012 10.617 14.716 16.194a244.01 244.01 0 0 1 3.309 4.022l-1.706-1.139c-1.465-.95-2.93-1.882-4.463-2.745-1.517-.846-3.05-1.692-4.619-2.469-1.602-.794-3.325-1.45-4.876-2.348-.069-.034-.121.069-.052.104 1.603.656 3.085 1.657 4.567 2.538 1.533.897 3.05 1.812 4.549 2.779 1.465.932 2.947 1.865 4.411 2.814 1.224.794 2.413 1.658 3.688 2.4 2.895 3.746 5.6 7.631 8.03 11.705a84.14 84.14 0 0 1 4.153 7.89c-.293-.138-.603-.259-.896-.397-.758-.345-1.534-.673-2.292-1.019-1.482-.656-2.964-1.294-4.428-1.933-2.809-1.226-5.67-2.348-8.427-3.695-1.551-.759-3.067-1.554-4.498-2.503-.069-.035-.12.052-.051.104 5.135 3.556 10.908 6.042 16.594 8.563l2.465 1.087c.672.294 1.361.639 2.05.898a88.348 88.348 0 0 1 4.239 11.636c2.275 7.976 4.015 16.125 5.446 24.291 1.43 8.201 2.412 16.453 3.153 24.757.086 1.036.19 2.072.31 3.108.052.414.655.414.655 0-.052-4.212-.482-8.425-.913-12.603l.017-.017Z" fill="#1A2E35"></path><path d="M481.796 272.899c-.466-2.556-1.138-5.042-1.827-7.545-.017-.069-.138-.034-.103.035.637 2.451 1.085 4.954 1.55 7.441.466 2.537.879 5.093 1.241 7.648 0 .051.069.051.069 0a70.388 70.388 0 0 0-.913-7.579h-.017ZM470.991 279.822c-1.706-1.209-3.602-2.124-5.446-3.073-.913-.467-1.843-.915-2.757-1.364-.947-.467-1.947-.846-2.895-1.33-.069-.034-.12.069-.051.104.913.466 1.792 1.018 2.688 1.502.93.501 1.844 1.018 2.791 1.519 1.827.984 3.636 2.072 5.566 2.883.173.069.276-.138.138-.241h-.034Z" fill="#1A2E35"></path><path opacity=".1" d="M501.13 298.191s15.854-3.798 23.126-14.45c6.944-10.169 9.202-27.52 9.374-29.039-.293 1.399-3.55 16.557-14.354 23.618-8.255 5.404-16.25 9.858-18.163 19.871h.017Z" fill="#1A2E35"></path><path d="M515.76 270.758c-2.791 2.693-4.877 5.852-5.842 9.651 0 .034.035.051.052 0 1.189-3.522 3.154-7.01 5.876-9.582.052-.052-.017-.138-.086-.086v.017Z" fill="#1A2E35"></path><path d="M501.13 298.191s15.854-3.798 23.126-14.451c6.944-10.168 9.202-27.519 9.374-29.038 0-.069.017-.104.017-.104s-7.599 10.825-15.595 13.587c-7.996 2.763-19.231 12.31-16.939 30.006h.017Z" fill="#CF96C6"></path><path d="M530.856 260.572c-1.465 2.883-3.016 5.749-4.894 8.39-1.844 2.573-4.05 4.765-6.514 6.716-2.154 1.709-4.429 3.263-6.617 4.938 0-.018.034-.052.052-.087a42.04 42.04 0 0 1 1.292-1.778c.913-1.157 1.896-2.262 2.895-3.349 1.964-2.141 3.981-4.247 5.738-6.561a23.322 23.322 0 0 0 2.551-4.109c.034-.069-.086-.103-.104-.034-2.567 5.369-7.702 8.805-11.373 13.328a23.777 23.777 0 0 0-1.465 2.003c-.31.483-.706 1.035-.913 1.622-1.999 1.641-3.843 3.419-5.411 5.473.138-1.036.362-2.089.638-3.09.396-1.416.913-2.762 1.688-4.023.035-.069-.051-.121-.103-.069-.741 1.261-1.413 2.607-1.844 3.988a13.777 13.777 0 0 0-.568 3.436 31.016 31.016 0 0 0-2.137 3.332c.069-.345.138-.673.189-1.019a72.124 72.124 0 0 1 1.069-4.713c.827-3.159 1.947-6.232 3.808-8.943.034-.069-.052-.121-.103-.069-1.827 2.676-3.223 5.663-4.222 8.753a49.033 49.033 0 0 0-1.258 4.748c-.173.777-.328 1.571-.483 2.348-.069.414-.172.829-.224 1.243-1.62 3.436-2.757 7.113-3.653 10.773-1.62 6.578-2.619 13.345-3.378 20.078-.792 7.062-1.206 14.209-1.085 21.322 0 .898.069 1.778.12 2.676 0 .224.362.259.362.017.155-3.522.242-7.044.448-10.566.207-3.521.517-7.043.897-10.548.741-6.889 1.809-13.76 3.308-20.527 1.292-5.801 2.947-11.654 6.118-16.73a31.36 31.36 0 0 1 5.721-6.819c2.223-2.003 4.652-3.747 6.996-5.594 2.326-1.847 4.566-3.85 6.428-6.18 1.998-2.521 3.567-5.352 5.049-8.201.379-.725.758-1.433 1.137-2.158.034-.069-.069-.138-.104-.069l-.051.052Z" fill="#1A2E35"></path><path d="M528.116 262.902c-1.017 2.141-2.24 4.196-3.533 6.181-.034.052.035.086.069.052 1.379-1.951 2.533-4.04 3.567-6.198.035-.069-.086-.104-.103-.035Z" fill="#1A2E35"></path><path d="M442.954 291.165s-.258 22.564 13.217 29.09c13.476 6.526 20.696 1.088 29.846 3.263-.362-.535-6.893-9.944-17.284-12.534-10.684-2.676-22.522-10.41-25.762-19.802l-.017-.017Z" fill="#CF96C6"></path><path d="M442.954 291.165s-.258 22.564 13.217 29.09c13.476 6.526 20.696 1.088 29.846 3.263-.379-.19-7.065-3.539-15.319-4.523-8.496-1.019-24.711-6.578-27.727-27.813l-.017-.017Z" fill="#CF96C6"></path><path d="M486.913 323.932a23.155 23.155 0 0 0-5.359-3.643 18.48 18.48 0 0 0-.879-.379 11.571 11.571 0 0 0-.448-.518 16.833 16.833 0 0 0-1.275-1.209c-.844-.725-1.74-1.398-2.705-1.951-2.223-1.312-4.67-2.227-6.962-3.453-.069-.034-.121.069-.052.104a62.922 62.922 0 0 1 3.309 1.882c1.068.621 2.154 1.226 3.205 1.899a25.03 25.03 0 0 1 2.671 2.003c.241.207.465.431.689.656-1.482-.518-3.016-.898-4.549-1.209-2.464-.501-4.963-.846-7.427-1.381a36.099 36.099 0 0 1-3.567-.967c-1.12-.898-2.241-1.795-3.292-2.779a27.443 27.443 0 0 1-3.481-3.868c-.051-.069-.137 0-.103.069 1.654 2.141 3.446 4.316 5.514 6.112a29.792 29.792 0 0 1-1.723-.708c-4.584-2.089-8.651-5.386-11.477-9.564-.034-.069-.137 0-.103.069 2.464 3.573 5.601 6.629 9.288 8.925a27.62 27.62 0 0 0 5.859 2.78c2.378.794 4.842 1.26 7.289 1.726 2.413.449 4.825.915 7.135 1.71a21.127 21.127 0 0 1 5.979 3.159c3.464 2.607 6.152 6.163 8.065 10.031 2.55 5.127 3.774 10.859 4.446 16.504.034.242.396.242.379 0-.638-9.478-3.171-19.353-10.46-25.948l.034-.052Z" fill="#1A2E35"></path><path d="M471.284 316.56c-.672-1.07-1.689-1.882-2.774-2.52-1.276-.743-2.413-1.537-3.292-2.728-.051-.069-.138 0-.103.069.81 1.053 1.792 1.899 2.912 2.607 1.172.742 2.361 1.467 3.171 2.624.034.052.12 0 .086-.052Z" fill="#1A2E35"></path><path d="m478.418 340.575.62 12.413 1.879 37.93h28.26l1.879-37.93.603-12.413h-33.241Z" fill="#284A7C"></path><path d="m478.418 340.575.62 12.413h32.018l.603-12.413h-33.241Z" fill="#ECECEC"></path><path d="M476.453 347.256h37.205v-11.843h-37.205v11.843Z" fill="#284A7C"></path><path d="M505.3 433.975c.259-30.057.621-60.805 10.857-89.049 1.654-4.541 3.653-9.151 7.186-12.431 3.549-3.28 9.029-4.92 13.337-2.745 5.963 3.004 6.841 11.118 6.273 17.783-2.861 32.905-21.351 62.082-37.67 86.442h.017ZM504.611 434.563c16.095-6.44 29.415-18.128 42.977-28.918 13.579-10.79 28.381-21.149 45.459-24.067 5.118-.88 11.459-.483 13.975 4.075 1.568 2.848.982 6.508-.689 9.305-1.672 2.797-4.239 4.921-6.79 6.941-13.786 10.945-28.433 21.045-44.666 27.83-16.233 6.767-34.24 10.082-50.266 4.834ZM560.857 363.433c2.895-25.638 5.807-51.275 8.702-76.913.362-3.228 1.138-7.044 4.119-8.321 2.481-1.071 5.497.276 7.1 2.451 1.602 2.176 2.119 4.972 2.412 7.666 1.448 13.311-1.12 26.794-5.6 39.414-4.481 12.603-10.805 24.464-16.75 35.703h.017Z" fill="#fff"></path><path d="M561.15 361.828c15.561-15.107 31.225-30.299 49.181-42.419 2.964-2.003 6.186-3.988 9.753-4.161 3.584-.172 7.531 2.141 7.892 5.715.293 2.987-1.861 5.593-3.946 7.752-16.836 17.247-39.031 29.159-62.88 33.13v-.017ZM602.317 288.092c3.343-20.787-9.77-41.711-6.014-62.428.466-2.607 1.5-5.508 3.964-6.44 1.999-.76 4.342.121 5.841 1.657 1.5 1.537 2.31 3.609 2.947 5.663 6.118 19.543.569 40.606-6.738 61.53v.018ZM602.938 287.505l32.621-40.347c1.74-2.158 3.549-4.368 5.927-5.784 2.378-1.416 5.515-1.916 7.91-.518 2.24 1.312 3.395 4.04 3.395 6.647s-.982 5.11-2.189 7.424c-4.497 8.735-12.062 15.607-20.42 20.769-8.358 5.162-17.577 8.753-27.244 11.791v.018Z" fill="#fff"></path><path d="M492.962 447.425c50.37-51.31 85.816-100.013 113.302-166.498" stroke="#fff" stroke-width="2.78" stroke-linecap="round" stroke-linejoin="round"></path><path d="M141.7 403.348c14.855-17.229 19.852-42.418 12.718-64.033-1.448-4.385-4.515-9.375-9.116-9.03-2.757.208-4.946 2.348-6.703 4.472-6.652 8.062-10.926 18.059-12.166 28.452-1.103-14.105-2.223-28.331-6.083-41.936-3.86-13.621-10.702-26.742-21.523-35.841-6.135 15.487-8.306 32.544-6.238 49.083-10.236-21.684-20.903-43.972-38.721-59.994-4.636-4.16-12.2-7.751-16.509-3.245-3.308 3.47-1.93 9.115-.24 13.604a314.424 314.424 0 0 0 24.124 50.032 198.154 198.154 0 0 0-32.896-22.064c-5.807-3.09-14.372-5.248-17.801.38-3.033 4.972 1.172 11.118 5.256 15.262a259.572 259.572 0 0 0 35.808 30.247c-11.183-7.493-27.864-5.093-36.463 5.283 15.647 12.379 34.516 20.648 54.213 23.721a70.767 70.767 0 0 0-31.484.846c-4.308 1.105-9.253 3.505-9.684 7.942-.534 5.525 6.048 8.667 11.442 9.927a225.97 225.97 0 0 0 41.788 5.784c-9.598 2.417-19.18 4.834-28.778 7.268-2.791.708-5.841 1.588-7.375 4.005-2.085 3.263-.224 7.89 2.981 10.065 3.205 2.176 7.272 2.487 11.132 2.59 30.225.708 61.261-8.408 82.284-32.785l.034-.035Z" fill="#27BFF1"></path><path d="M158.485 363.502c-17.388 9.513-40.927 5.956-54.73-8.304-16.112-16.626-19.076-44.628-38.858-56.627-8.238-4.99-18.784-6.682-24.97-14.053-7.22-8.598-5.67-21.322-8.84-32.112C24.832 231.153 0 217.014 0 194.863c0-7.63 3.963-15.831 11.166-18.317 8.668-2.987 17.922 3.228 23.333 10.635 5.41 7.406 8.84 16.315 15.44 22.668 15.905 15.331 44.614 10.997 59.175 27.606 12.925 14.743 8.168 38.724 19.145 54.987 6.135 9.081 16.268 14.416 25.607 20.147 9.323 5.732 18.784 13.018 21.799 23.549 3.016 10.549-5.497 20.959-17.18 27.347v.017Z" fill="#0678B7"></path><path d="M158.485 363.502S91.141 307.255 51.49 248.815l-39.652-58.458" stroke="#002137" stroke-width="3.31" stroke-miterlimit="10"></path><path d="M65.172 141.275c4.877-11.395 11.632-27.036 12.925-39.363.413-3.902.568-8.149-1.551-11.464-2.689-4.212-8.547-5.628-13.286-4.057-4.74 1.571-8.84 6.32-11.046 10.79-2.189 4.489-3.964 12.086-3.964 12.086s-11.459-4.299-17.421-4.852c-5.963-.552-12.649 2.141-14.837 7.718-1.62 4.126-.431 8.977 2.171 12.568 2.602 3.591 6.393 6.129 10.305 8.218 11.683 6.215 24.039 7.216 36.722 8.339l-.018.017Z" fill="#CF96C6"></path><mask id="b" style="mask-type:luminance" maskUnits="userSpaceOnUse" x="55" y="104" width="23" height="15"><path d="M75.442 118.244c-5.428-.432-9.34-1.416-14.474-3.177-1.483-.5-2.999-1.105-4.05-2.261-1.069-1.174-1.534-2.901-1.155-4.454.38-1.554 1.603-2.884 3.12-3.35 1.464-.449 3.032-.138 4.531.173 4.688.984 9.375 1.951 14.062 2.935l-2.034 10.151v-.017Z" fill="#fff"></path></mask><g mask="url(#b)"><path d="M76.89 118.382a64.474 64.474 0 0 1-15.94-3.315c-1.482-.5-2.998-1.105-4.05-2.261-1.068-1.174-1.533-2.901-1.154-4.454.38-1.554 1.603-2.884 3.12-3.35 1.464-.449 3.032-.138 4.531.173 4.688.984 9.375 1.951 14.062 2.935l-.569 10.289v-.017Z" fill="#F8F2E0"></path><path d="M66.12 103.258a88.653 88.653 0 0 0-2.791 17.265c3.05.552 6.169.777 9.27.621l3.981-16.211c-3.429-1.036-6.979-1.657-10.46-1.692v.017Z" fill="#EEE3C5"></path></g><path d="M66.671 112.046c-.913.449-.224 1.83.69 1.398.913-.449.224-1.83-.69-1.398ZM67.464 107.229c-.913.449-.224 1.83.69 1.399.913-.449.224-1.83-.69-1.399ZM69.515 110.647c-.914.449-.224 1.83.689 1.399.913-.449.224-1.83-.69-1.399ZM71.22 113.859c-.913.449-.223 1.83.69 1.398.913-.449.224-1.83-.69-1.398ZM71.807 109.145c-.914.449-.224 1.83.689 1.399.913-.449.224-1.83-.69-1.399Z" fill="#EEC8A1"></path><path d="M21.161 109.888s-3.705 1.951-3.395 6.561l3.395-6.561Z" fill="#AD74A6"></path><path d="m672.211 210.28-8.805-2.572 2.585 8.805-2.585 8.822 8.805-2.59 8.789 2.59-2.568-8.822 2.568-8.805-8.789 2.572ZM67.503 18.225l1.662.458L74.17.438 72.51-.02l-5.006 18.245Z" fill="#fff"></path><path d="m79.71 12.702.457-1.665-18.211-5.015-.457 1.665 18.211 5.015ZM24.849 251.111l5.876-1.191-1.172-5.87 1.982-.397 1.171 5.87 5.877-1.174.396 2.002-5.859 1.174 1.172 5.87-1.999.397-1.172-5.87-5.859 1.174-.413-1.985Z" fill="#fff"></path><mask id="c" style="mask-type:luminance" maskUnits="userSpaceOnUse" x="575" y="138" width="42" height="30"><path d="M575.918 160.749c-1.982-5.231.655-11.084 5.876-13.069l21.282-8.063c5.221-1.985 11.063.656 13.045 5.887 1.981 5.231-.655 11.084-5.877 13.07l-21.281 8.062c-5.222 1.985-11.064-.656-13.045-5.887Z" fill="#fff"></path></mask><g mask="url(#c)"><path d="m607.067 138.049-29.282 11.109a5.856 5.856 0 0 0-3.394 7.546l3.033 8.024a5.838 5.838 0 0 0 7.532 3.401l29.282-11.109a5.855 5.855 0 0 0 3.394-7.546l-3.033-8.024a5.838 5.838 0 0 0-7.532-3.401Z" fill="#FBE9E9"></path><path d="M589.755 142.189c4.773 1.157 8.444 5.231 10.167 9.841 1.723 4.592 1.775 9.651 1.361 14.554-5.135 1.761-10.408 3.539-15.836 3.401-5.428-.138-11.132-2.607-13.631-7.441-2.516-4.868-1.102-11.187 2.62-15.193 3.722-4.005 9.477-6.56 15.302-5.162h.017Z" fill="#EE1E8C"></path></g><path d="M519.117 71.19c5.441-17.197-4.062-35.557-21.226-41.009-17.165-5.451-35.491 4.07-40.932 21.266-5.442 17.196 4.061 35.556 21.226 41.008 17.164 5.452 35.49-4.069 40.932-21.266Z" fill="#ECECEC"></path><path d="M505.744 88.627c14.664-8.964 19.299-28.14 10.351-42.832-8.947-14.692-28.089-19.335-42.753-10.37-14.664 8.964-19.298 28.14-10.351 42.832 8.948 14.692 28.089 19.335 42.753 10.37Z" fill="#DCDCDC"></path><path d="M504.728 86.957c13.735-8.403 18.071-26.37 9.683-40.13-8.387-13.761-26.321-18.105-40.056-9.702-13.735 8.403-18.07 26.37-9.683 40.13 8.387 13.762 26.321 18.105 40.056 9.702Z" fill="#fff"></path><path opacity=".5" d="M518.035 55.868c-13.269 8.062-35.085 21.27-47.268 28.52-3.412-2.9-6.169-6.56-7.961-10.72l40.323-37.447a29.229 29.229 0 0 1 14.923 19.647h-.017ZM518.69 63.084a29.057 29.057 0 0 1-1.93 9.495l-36.343 17.23a29.339 29.339 0 0 1-4.584-1.968c10.977-6.353 31.052-17.92 42.874-24.74l-.017-.017Z" fill="#ECECEC"></path><path d="M489.843 34.977h-.569v4.42h.569v-4.42ZM476.292 38.443l-.493.285 2.206 3.827.492-.285-2.205-3.827ZM466.262 48.242l-.284.493 3.82 2.21.285-.493-3.821-2.21ZM466.941 61.772h-4.411v.57h4.411v-.57ZM469.834 73.17l-3.821 2.21.285.493 3.82-2.21-.284-.493ZM477.997 81.545l-2.204 3.829.493.285 2.204-3.83-.493-.284ZM489.843 84.716h-.569v4.42h.569v-4.42ZM501.116 81.548l-.492.284 2.205 3.828.493-.285-2.206-3.827ZM509.264 73.116l-.284.493 3.82 2.21.285-.493-3.821-2.21ZM516.587 61.772h-4.411v.57h4.411v-.57ZM512.821 48.269 509 50.479l.285.493 3.82-2.21-.284-.493ZM502.845 38.49l-2.203 3.83.492.284 2.204-3.829-.493-.284Z" fill="#C8C8C8"></path><path d="m489.981 36.98.965 27.054-2.775-.035 1.069-27.019h.741Z" fill="#C8C8C8"></path><path d="M506.8 52.622 488.637 64.24l-1.327-2.434 19.128-9.841.362.656Z" fill="#A8A8A8"></path><path d="M490.498 62.066c0 .518-.431.95-.948.95a.956.956 0 0 1-.947-.95c0-.518.43-.95.947-.95.517 0 .948.432.948.95Z" fill="#C8C8C8"></path><path d="M308.25 491c126.177 0 228.465-10.93 228.465-24.412s-102.288-24.412-228.465-24.412c-126.178 0-228.465 10.93-228.465 24.412S182.072 491 308.25 491Z" fill="#ECECEC" opacity=".3"></path><path d="M368.235 55.902c-12.166 16.125-26.71 23.22-26.71 23.22s-14.526-7.078-26.692-23.22c-9.392-12.465-8.944-31.973 4.515-36.203 14.871-4.662 22.177 17.748 22.177 17.748s7.41-22.565 22.196-17.748c13.406 4.368 13.906 23.738 4.514 36.203Z" fill="#EE1E8C"></path><path d="m331.048 69.265-4.067-16.902-2.636 5.956h-16.371V56.42h15.13l4.429-9.979 3.153 13.19 4.463-27.312 3.947 21.598 3.119-9.012 4.928 14.76 1.086-3.262h26.899v1.916H349.59l-2.447 7.372-4.963-14.865-3.653 10.583-3.274-17.92-4.205 25.776Z" fill="#fff"></path><path d="M500.82 454.054c-2.516.829-74.219.622-76.959-1.105-1.034-.656-1.62-11.118-1.947-23.79-.069-2.745-.173-46.821-.173-46.821h46.682l-.275 46.821s27.416 12.396 30.208 14.623c2.774 2.227 4.963 9.461 2.464 10.272Z" fill="#FFABA1"></path><path d="M422.086 434.718c.362 10.048.913 17.679 1.792 18.248 2.723 1.727 74.426 1.934 76.942 1.105 2.499-.828.293-8.062-2.464-10.272-1.534-1.226-10.512-5.525-18.284-9.15 2.706 1.692 6.169 4.074 5.859 5.507-.603 2.78-36.308 4.593-63.845-5.438Z" fill="#FFC800"></path><path d="M422.086 434.718c.362 10.048.913 17.679 1.792 18.248 2.723 1.727 74.426 1.934 76.942 1.105 2.499-.828.293-8.062-2.464-10.272-1.534-1.226-10.512-5.525-18.284-9.15 2.706 1.692 6.169 4.074 5.859 5.507-.603 2.78-36.308 4.593-63.845-5.438Z" fill="#060907"></path><path d="M404.595 183.037s12.614 125.012 12.907 126.6c.052.207.138 2.624.259 6.543.672 21.529 1.447 94.937 1.447 94.937h51.473s-2.447-85.787-4.377-104.329c-2.464-23.652-18.042-123.751-18.042-123.751h-43.667Z" fill="#27BFF1"></path><path d="M423.637 314.04a1359.268 1359.268 0 0 0-7.169-81.074c-1.809-15.192-3.981-30.333-6.152-45.474-.017-.138-.224-.121-.207 0 3.981 26.95 6.807 54.106 9.237 81.246.861 9.582 2.481 26.104 3.36 45.336 1.586 35.151 2.258 77.19 2.568 87.151 0 .363.586.346.568 0-.723-27.45-.603-59.752-2.223-87.168l.018-.017Z" fill="#1A8AA8"></path><path d="M467.148 402.554c-23.453-.742-43.752-.207-45.51-.086-1.447.121-.638.259.086.311 19.921 1.191 44.666.069 45.442-.017.137 0 .12-.208 0-.208h-.018Z" fill="#1A2E35"></path><path d="M404.595 183.037s12.614 125.012 12.907 126.6c.052.207.138 2.624.259 6.543l24.263-133.143h-37.429Z" fill="#1A8AA8"></path><path d="M419.484 460.287c-2.602.448-74.874-10.704-77.321-12.828-.931-.794 11.925-69.351 11.925-69.351l47.164 6.975-8.668 46.924s23.557 15.124 25.987 17.731c2.412 2.607 3.532 10.082.947 10.549h-.034Z" fill="#FFABA1"></path><path d="M342.146 447.459c2.447 2.124 74.718 13.276 77.338 12.828 2.602-.467 1.482-7.942-.948-10.549-1.413-1.519-9.874-7.199-16.767-11.74 2.447 2.124 5.876 5.37 5.325 6.802-1.051 2.659-36.705-1.553-62.174-16.142-1.809 10.514-3.067 18.525-2.757 18.801h-.017Z" fill="#FFC800"></path><path d="M342.146 447.459c2.447 2.124 74.718 13.276 77.338 12.828 2.602-.467 1.482-7.942-.948-10.549-1.413-1.519-9.874-7.199-16.767-11.74 2.447 2.124 5.876 5.37 5.325 6.802-1.051 2.659-36.705-1.553-62.174-16.142-1.809 10.514-3.067 18.525-2.757 18.801h-.017Z" fill="#060907"></path><path d="M448.262 183.037s-1.517 12.724-8.806 21.909c-1.74 2.192-7.1 4.247-9.874 6.267 0 0-10.356 95.316-13.51 106.124-3.498 11.982-17.181 93.988-17.181 93.988l-53.058-7.338s15.423-76.93 19.266-96.871c.862-4.454 12.373-88.342 12.114-90.275-3.084-23.1 8.117-33.804 8.117-33.804h62.932Z" fill="#27BFF1"></path><path d="M407.731 183.935c-1.016 4.558-3.412 8.563-6.41 11.412-3.36 3.211-7.53 5.438-11.649 5.904-.689.069-.603.535.121.535 8.392-.034 16.939-6.854 18.283-17.799.035-.242-.293-.294-.345-.069v.017ZM440.438 204.549c-3.084 1.105-5.893 2.883-8.668 4.609-2.877 1.779-5.548 3.885-8.323 5.801-.103.069 0 .242.104.19 2.912-1.674 5.962-3.142 8.84-4.886 2.809-1.692 5.721-3.314 8.185-5.49.103-.086 0-.276-.121-.224h-.017Z" fill="#1A2E35"></path><path d="M441.627 187.025c-.448 1.934-.999 3.833-1.516 5.732-.483 1.795-.844 3.625-1.413 5.404-.534 1.709-1.361 3.28-2.74 4.454-.741.621-1.551 1.174-2.326 1.744-.431.31-.879.604-1.31.915.069-.259.121-.518.19-.777.155-.725.327-1.468.482-2.193.345-1.623.689-3.246 1.017-4.886.637-3.194 1.24-6.439 2.05-9.599.035-.121-.155-.19-.206-.051-.948 3.124-1.982 6.215-2.809 9.374-.414 1.554-1.982 9.219-2.068 9.755a28.673 28.673 0 0 0-.207 1.691c-.052.553-.189 1.174-.086 1.727.034.138.19.121.258.034.311-.483.397-1.122.569-1.657.172-.552.31-1.105.448-1.657.052-.208.086-.415.121-.605.775-.431 1.516-1.001 2.24-1.484.793-.518 1.603-1.019 2.344-1.606 1.447-1.105 2.378-2.503 2.963-4.212.621-1.779.862-3.661 1.155-5.508.345-2.175.62-4.385 1.034-6.56.017-.121-.172-.19-.207-.052l.017.017ZM396.427 400.828c-23.126-4.006-43.305-6.319-45.062-6.423-1.465-.086-.672.173.034.311 19.559 3.971 44.218 6.302 44.994 6.319.137 0 .155-.19.017-.207h.017Z" fill="#1A2E35"></path><path d="M361.842 348.189c3.033-13.328 5.79-26.708 8.048-40.192 2.24-13.432 4.066-26.915 5.79-40.416 1.757-13.621 3.463-27.226 5.221-40.847.431-3.298 1.12-6.716.965-10.048-.155-3.263-1.275-6.405-1.585-9.651-.603-6.284.586-12.689 2.671-18.611a70.349 70.349 0 0 1 1.757-4.454c.087-.19.379-.104.311.103-2.034 6.164-3.912 12.482-4.016 19.026-.051 3.383.586 6.577 1.276 9.875.672 3.246.586 6.301.172 9.582a10854.155 10854.155 0 0 1-5.17 40.657c-1.74 13.501-3.498 27.002-5.635 40.451-2.119 13.414-4.652 26.725-7.668 39.95-3.05 13.328-6.152 26.656-9.495 39.932-.414 1.64-.827 3.298-1.258 4.938-.052.19-.327.104-.293-.086 2.688-13.449 5.859-26.812 8.909-40.192v-.017Z" fill="#1A8AA8"></path><path d="M435.337 67.297c-4.032-4.92-10.908-6.112-17.594-4.73-6.686 1.38-14.647 4.868-15.354 16.435-.586 9.41 2.241 18.577 2.223 29.073-.017 10.497-11.356 36.031 6.962 48.531 16.457 11.239 49.75 1.036 50.715-22.03.775-18.283-20.145-35.236-22.351-42.47-2.223-7.251-.189-19.44-4.618-24.826l.017.017Z" fill="#1A2E35"></path><path d="M438.371 77.62c.137 5.232.878 10.532 2.981 15.47a15.094 15.094 0 0 0 2.085 3.47c.81 1.053 1.671 2.054 2.533 3.038 1.74 1.969 3.446 3.919 5.066 5.939 3.257 4.023 6.083 8.391 8.082 13.156 1.999 4.765 3.068 9.927 3.223 15.158.224-2.607.103-5.266-.242-7.873a38.392 38.392 0 0 0-1.964-7.682c-1.792-5.007-4.687-9.547-7.979-13.674-1.654-2.054-3.412-4.005-5.169-5.956-1.758-1.95-3.533-3.798-4.619-6.094-1.137-2.28-1.93-4.765-2.533-7.286-.672-2.52-1.103-5.093-1.464-7.683v.018ZM402.889 86.91c.138 5.334.466 10.669.345 15.969-.086 2.641-.224 5.283-.62 7.89-.379 2.572-1.103 5.144-1.724 7.734-.603 2.607-1.154 5.231-1.568 7.89-.362 2.676-.568 5.369-.482 8.08.138 2.71.603 5.403 1.465 7.976.982 2.538 2.447 4.851 4.308 6.767-1.603-2.14-2.895-4.454-3.619-6.992-.707-2.537-1.017-5.144-1.017-7.769.069-5.265 1.086-10.462 2.344-15.624.586-2.59 1.309-5.162 1.671-7.89.328-2.693.448-5.386.379-8.062-.103-5.37-.723-10.687-1.464-15.97h-.018Z" fill="#1A2E35"></path><path d="M425.67 131.676c4.911 12.223 24.418 51.69 37.239 54.469 8.409 1.83 42.391-1.467 48.233-9.53 2.55-3.505-1.758-27.985-6.29-27.001-4.532.966-31.776 4.575-35.119 3.608-3.326-.967-28.416-29.902-37.79-37.084-16.147-12.379-8.927 8.96-6.273 15.538Z" fill="#FFABA1"></path><path d="m494.564 147.87.724 36.756s-26.934 4.92-38.445.466c-13.975-5.404-33.12-50.084-35.705-57.404-4.222-12.016-2.688-19.147 3.86-17.161 2.533.759 5.842 2.9 9.84 6.698 4.187 3.954 28.14 29.505 35.808 34.443 4.291 2.762 23.918-3.798 23.918-3.798Z" fill="#ECECEC"></path><path d="M488.464 183.072c-.276-5.421-.568-27.692-.293-32.509.018-.328.242-.397.259-.052 1.189 16.246.258 27.192.258 32.544 0 .138-.207.155-.207.017h-.017Z" fill="#1A2E35"></path><path d="M483.88 186.197c-8.754.915-20.437 1.45-27.037-1.105-13.975-5.404-33.12-50.084-35.688-57.404-4.239-12.016-2.688-19.147 3.843-17.161.207.052.414.121.62.207l58.28 75.463h-.018Z" fill="#A8A8A8"></path><path d="m446.125 162.579 5.118 35.289s-57.401.846-71.652-.156c0 0 11.632-65.967 26.951-82.644 7.669-8.339 16.664-7.718 22.402-1.882 1.448 1.467 18.766 24.394 20.593 33.165 1.585 7.734-3.395 16.228-3.395 16.228h-.017Z" fill="#27BFF1"></path><path d="M412.901 110.181s4.98 189.529.242 197.661c-2.895 4.972-50.715-6.941-50.715-6.941S374.784 188.596 389 148.629c13.166-37.049 23.919-38.465 23.919-38.465l-.018.017Z" fill="#ECECEC"></path><path d="M376.903 234.934c-.241 7.855.121 16.764 1.792 18.404 3.136 3.056 11.46 2.797 14.062 2.78 2.584-.018 11.942-.035 14.13-4.852.965-2.123 1.224-13.103 1.189-16.988 0-1.571-.362-9.34-.482-10.203-.035-.207-.586-.19-.604-.052-.137.88-.051 4.109-.086 4.73-15.026 1.934-24.314.311-29.139-.621 0-1.45 0-2.572-.018-4.04 2.068.518 9.013 1.347 14.217 1.347 5.204 0 13.045-.777 15.595-1.105.121 0 .035-.587-.155-.587-1.947.034-8.737.69-15.578.69-6.841 0-14.578-1.139-14.613-1.139-.224.069-.224 7.872-.344 11.636h.034Zm2.688 17.506c-1.654-1.899-1.861-7.406-1.861-10.686 0-4.524.017-8.132.035-12.655 11.562 2.693 24.28 1.364 29.105.397 0 .19.086 9.737 0 12.775-.121 3.885-.241 7.39-1.723 9.41-1.276 1.726-4.877 3.47-13.149 3.452-5.979 0-11.028-1.104-12.407-2.693Z" fill="#A8A8A8"></path><path d="M450.416 304.32c1.964 2.382 17.732-5.404 17.732-5.404L446.452 161.94s4.601-6.819 3.102-15.434c-1.499-8.615-19.489-33.579-22.402-34.874 0 0 4.119 16.125 6.238 39.156 4.998 53.951 14.234 150.148 17.009 153.532h.017Z" fill="#ECECEC"></path><path d="M443.867 134.835c-1.602-2.555-3.239-5.093-4.825-7.665-.051-.069.069-.156.121-.087a292.747 292.747 0 0 1 4.722 6.406 87.843 87.843 0 0 1-1.482-3.488c-.052-.138.138-.242.206-.103a95.846 95.846 0 0 1 1.982 4.592c1.362 1.934 2.637 3.936 3.671 6.077 2.188 4.506 3.136 9.426 1.947 14.347a18.43 18.43 0 0 1-1.43 3.919c-.431.846-1.81 2.693-1.793 2.745.897 5.024 1.569 10.117 2.275 15.175.724 5.128 1.448 10.238 2.034 15.383.344 2.9.551 5.835.982 8.736 0 .103-.155.155-.155.034-.362-2.52-.914-5.024-1.362-7.544a383.558 383.558 0 0 1-1.275-7.562c-.81-5.093-1.551-10.203-2.275-15.314-.413-2.883-.878-5.783-1.206-8.684-.034-.311 1.275-2.382 1.655-3.176.516-1.071.93-2.193 1.257-3.315.655-2.314.879-4.765.604-7.148-.552-4.903-3.085-9.253-5.653-13.362v.034Z" fill="#1A2E35"></path><path d="M427.29 112.184a388.466 388.466 0 0 0 5.153 7.631c1.757 2.521 3.481 5.059 5.273 7.545l.034-.605-4.308 4.524-.362.38.379.362c1.81 1.761 3.654 3.487 5.498 5.214l-.156-.449c-.672 4.679-1.378 9.357-1.981 14.036a548.497 548.497 0 0 0-1.741 14.071c.896-4.645 1.706-9.306 2.482-13.967.81-4.662 1.499-9.34 2.24-14.002l.034-.259-.189-.19c-1.827-1.743-3.636-3.504-5.48-5.231v.743l4.239-4.593.259-.293-.224-.311c-1.81-2.486-3.688-4.903-5.532-7.355a329.434 329.434 0 0 0-5.652-7.268l.034.017Z" fill="#A8A8A8"></path><path d="M397.323 121.524c-22.591 21.236-49.163 58.026-39.789 67.038 6.221 5.991 37.446-34.011 36.894-33.907-1.172.224 5.601-13.069 13.907-29.177 9.253-17.955 1.912-16.09-11.012-3.971v.017Z" fill="#FFABA1"></path><path d="M408.335 112.253c-15.733 7.804-59.004 58.354-53.351 73.892 5.669 15.538 41.391-31.266 41.03-31.939-.362-.673 8.702-18.456 12.39-25.69 3.687-7.233 8.288-20.423-.069-16.263Z" fill="#ECECEC"></path><path d="M406.198 136.959a64.427 64.427 0 0 0-2.533 2.814c-.156.172-.293.362-.431.552.241-.518.499-1.018.741-1.536.861-1.779 1.861-3.557 2.516-5.421.034-.087-.104-.138-.138-.069-1.172 1.709-2.068 3.625-3.05 5.455-.965 1.778-1.948 3.574-2.861 5.369-.93 1.813-1.878 3.609-2.774 5.439-.879 1.778-1.844 3.591-2.447 5.473-.035.103.12.172.189.086 1.224-1.675 2.154-3.574 3.119-5.404.948-1.795 1.844-3.625 2.775-5.438.379-.76.758-1.519 1.137-2.296.138-.173.293-.346.431-.501.413-.449.793-.932 1.172-1.416a77.417 77.417 0 0 0 2.24-3.056c.017-.034-.035-.069-.052-.051h-.034Z" fill="#1A2E35"></path><path d="M412.798 112.357a350.976 350.976 0 0 1-3.619 8.235c-1.241 2.711-2.447 5.456-3.739 8.166l-.121-.587 4.549 3.919.38.328-.293.415c-1.396 1.968-2.844 3.919-4.274 5.869l.069-.466c1.258 4.541 2.568 9.081 3.774 13.639a612.394 612.394 0 0 1 3.567 13.708 639.322 639.322 0 0 1-4.222-13.501c-1.396-4.506-2.688-9.046-4.015-13.569l-.069-.259.155-.208c1.413-1.968 2.809-3.936 4.256-5.887l.087.743-4.498-4.006-.276-.241.155-.328c1.293-2.694 2.671-5.335 3.998-8.011 1.344-2.659 2.723-5.3 4.119-7.942l.017-.017Z" fill="#A8A8A8"></path><path d="M410.489 116.707c-.379-5.645 4.239-7.665 8.461-8.235 5.014-.673 8.34-.259 10.735 4.61 2.534 5.127 3.843 11.084 4.843 16.695.189 1.053 1.809.794 1.637-.259-1.138-6.475-2.757-18.542-9.185-22.064-5.911-3.246-18.731-.069-18.111 9.512.069 1.071 1.706.795 1.637-.259h-.017Z" fill="#000"></path><path d="M439.577 132.142a3.804 3.804 0 0 1-3.154 4.35 3.797 3.797 0 0 1-4.342-3.159 3.803 3.803 0 0 1 3.153-4.351 3.8 3.8 0 0 1 4.343 3.16Z" fill="#000"></path><path d="M438.077 132.383c.207 1.243-.655 2.417-1.895 2.625-1.241.207-2.413-.656-2.62-1.899-.206-1.244.655-2.417 1.896-2.625 1.241-.207 2.412.656 2.619 1.899Z" fill="#ECECEC"></path><path d="M416.193 134.421c4.153 15.883 3.498 19.768 2.171 21.598-1.396 1.916-3.636 2.952-3.722 3.004l-.483-1.053s2.068-.967 3.274-2.625c.948-1.312 1.758-4.885-2.361-20.613l1.121-.294v-.017Z" fill="#C8C8C8"></path><path d="m412.663 159.921-.408-.741a.81.81 0 0 1 .319-1.102l2.082-1.15a.807.807 0 0 1 1.1.319l.408.74a.813.813 0 0 1-.318 1.103l-2.083 1.15a.808.808 0 0 1-1.1-.319Z" fill="#1A2E35"></path><path d="M405.836 134.8c-3.171 11.965-3.946 18.508-2.43 20.614 1.207 1.675 3.24 2.624 3.257 2.641l-.482 1.054c-.086-.052-2.327-1.088-3.722-3.022-1.793-2.503-1.155-8.753 2.257-21.58l1.12.293Z" fill="#C8C8C8"></path><path d="m404.697 158.104.411-.74a.808.808 0 0 1 1.101-.315l2.078 1.158a.811.811 0 0 1 .315 1.103l-.411.74a.808.808 0 0 1-1.101.315l-2.078-1.158a.811.811 0 0 1-.315-1.103Z" fill="#1A2E35"></path><path d="M404.337 134.006c.327-1.657 1.292-5.766 2.068-7.821.637-1.691 2.309-2.831 2.309-2.831.224-.017.138-2.037.017-3.677-.103-1.45-.258-3.142.104-3.608.344-.449 1.206-.484 1.585-.087.396.432.413 2.124.465 3.591.052 1.658.155 3.66.396 3.66 0 0 1.672 1.036 2.447 2.624.879 1.761 2.43 6.44 2.74 7.821.362 1.709-.189 1.917-.672 2.072-.689.242-1.12-.242-1.671-2.124-.845-2.986-1.93-8.01-3.998-7.993-2.051.207-2.895 5.525-3.567 8.477-.414 1.847-.81 2.037-1.517 1.864-.499-.12-1.016-.328-.689-1.968h-.017Z" fill="#000"></path><path d="M423.913 135.974s-3.981-5.99.31-8.373c4.291-2.4 7.272 4.161 7.272 4.161l-7.582 4.212Z" fill="#4D73B8"></path><path d="M455.896 175.734h.017l.172 7.044.069 2.331-1.947-1.278-5.876-3.867h-.017v-.017l-24.539-44.232 7.582-4.212 24.539 44.231Z" fill="#4D73B8"></path><path d="m456.085 182.778.069 2.331-1.947-1.278 1.878-1.053Z" fill="#2B454E"></path><path d="m431.837 130.883-8.84 4.926.98 1.765 8.84-4.926-.98-1.765ZM432.924 132.862l-8.84 4.926.98 1.765 8.84-4.926-.98-1.765Z" fill="#fff"></path><path d="m425.067 139.548 2.843-1.588 7.307 16.867-1.086.535-9.064-15.814Z" fill="#fff"></path><path d="M357.534 188.562c8.513 8.287 42.443 3.85 64.069-2.659 4.119-1.243-9.184-37.913-13.423-36.152-7.445 3.108-13.2 4.8-13.752 4.903-1.172.225-46.217 24.827-36.894 33.908Z" fill="#FFABA1"></path><path d="M459.342 151.288c-.31 4.109-10.374 2.469-10.374 2.469s2.292 1.692 2.74 4.385c.517 3.09-4.101 5.266-4.101 5.266s1.964 2.192 2.154 5.093c.189 3.004-4.153 5.852-4.153 5.852s.724 3.039-.913 5.663c-2.792 4.489-10.874 3.919-15.957 4.558-5.446.69-13.476 2.745-16.802 3.884l-6.272-37.688s22.712-11.118 28.743-10.324c5.083.656 25.4 4.54 24.918 10.825l.017.017Z" fill="#FFABA1"></path><path d="M448.899 153.654c-5.238-2.003-10.925-2.746-16.439-3.402-.121 0-.138.173-.017.19 5.48.587 10.942 2.659 16.405 3.471.155.017.207-.208.069-.259h-.018ZM447.503 162.976c-1.189-.414-2.533-.431-3.773-.518a161.446 161.446 0 0 0-4.05-.207 142.162 142.162 0 0 0-8.134-.086c-.12 0-.155.19-.017.19 2.706.103 5.394.242 8.082.449 1.344.103 2.688.224 4.032.345 1.258.121 2.568.345 3.826.19.19-.017.224-.311.034-.363ZM445.522 174.353c-1.034-.397-2.344-.276-3.429-.293-1.241-.018-2.465-.035-3.705-.069-2.465-.069-4.929-.121-7.393-.277-.121 0-.138.19-.017.19 2.498.173 4.997.363 7.513.501 1.224.069 2.464.138 3.688.19 1.051.052 2.343.224 3.36-.121.052-.017.052-.104 0-.121h-.017Z" fill="#1A2E35"></path><path d="M355.001 186.145c5.669 15.538 55.16 3.626 55.16 3.626l-.499-40.813s-13.269 5.938-13.631 5.248c-.362-.673-46.682 16.401-41.03 31.939Z" fill="#ECECEC"></path><path d="M404.285 186.922c-.396-5.421-1.189-27.675-1.034-32.492 0-.328.224-.414.259-.052 1.568 16.212.879 27.192.999 32.526 0 .138-.207.156-.207.018h-.017ZM409.351 148.957c-1.447.311-2.86.95-4.222 1.485-1.24.483-2.481.967-3.722 1.467-2.688 1.088-5.342 2.245-7.978 3.419a461.845 461.845 0 0 0-7.893 3.608c-2.619 1.243-5.152 2.624-7.754 3.867-.121.052-.017.242.103.173 2.654-1.191 5.377-2.21 8.048-3.349 2.619-1.105 5.238-2.227 7.858-3.332 2.619-1.105 5.238-2.193 7.857-3.315a921.264 921.264 0 0 1 3.843-1.658c1.362-.587 2.809-1.104 4.067-1.881.276-.173.103-.587-.207-.518v.034ZM410.316 188.89c0-.276-.137-.345-.206-.052-.035.155-.087.449-.121.604-1.672.294-7.823 1.554-9.323 1.848-3.153.621-6.255 1.381-9.426 1.795-3.188.397-10.115 1.053-13.32.967-.138 0-.138.19 0 .207 3.257.138 10.184 0 13.355-.38 3.222-.38 6.462-.897 9.633-1.554a111.84 111.84 0 0 0 4.756-1.104c1.482-.38 3.084-.674 4.48-1.347a.336.336 0 0 0 .172-.294v-.69Z" fill="#1A2E35"></path><path d="m489.102 188.372-42.667.915 18.749-55.264 42.667-.915-18.749 55.264Z" fill="#fff"></path><path d="m492.014 188.32-42.667.915 18.766-55.263 42.667-.915-18.766 55.263Z" fill="#4D73B8"></path><path d="M472.645 133.868a3.876 3.876 0 0 1-1.775 2.279c-.396.225-.517-.311-.12-.518.586-.328.999-.88 1.206-1.433.034-.103.069-.207.086-.31.103-.363.121-.726.035-1.054-.052-.155-.121-.276-.242-.362 0 0-.017 0-.034-.017-.017 0-.052 0-.052-.018h-.086a.572.572 0 0 0-.293.035 1.099 1.099 0 0 0-.482.328 2.26 2.26 0 0 0-.414.587 1.886 1.886 0 0 0-.172.328v.069s-.069.069-.069.104c0 .017-.035.051-.018.069h-.603c.121-.346.31-.708.552-1.053.413-.57.982-1.036 1.62-1.071.568-.017.878.38.965.846.069.38.034.794-.087 1.226l-.017-.035ZM475.971 133.799a3.876 3.876 0 0 1-1.775 2.279c-.396.225-.517-.31-.12-.518.586-.328.999-.88 1.206-1.433.034-.103.069-.207.086-.31.104-.363.121-.725.035-1.053a.595.595 0 0 0-.242-.363s-.017 0-.034-.017c-.017 0-.052 0-.052-.017h-.086a.572.572 0 0 0-.293.034 1.105 1.105 0 0 0-.482.328c-.19.19-.293.363-.414.587a1.922 1.922 0 0 0-.172.328v.069s-.069.069-.069.104c0 .017-.035.052-.017.069h-.604c.121-.345.311-.708.552-1.053.413-.57.982-1.036 1.62-1.071.568-.017.879.38.965.846.069.38.034.794-.086 1.226l-.018-.035ZM479.314 133.73a3.882 3.882 0 0 1-1.775 2.279c-.396.224-.517-.311-.12-.518.585-.328.999-.88 1.206-1.433.034-.103.069-.207.086-.311.103-.362.121-.725.034-1.053a.59.59 0 0 0-.241-.362s-.017 0-.034-.018c-.018 0-.052 0-.052-.017h-.086a.57.57 0 0 0-.293.035 1.099 1.099 0 0 0-.483.328c-.189.19-.293.362-.413.587a1.886 1.886 0 0 0-.172.328v.069s-.069.069-.069.103c0 .018-.035.052-.018.069h-.603a4.43 4.43 0 0 1 .552-1.053c.413-.569.982-1.036 1.619-1.07.569-.017.879.38.965.846.069.38.035.794-.086 1.226l-.017-.035ZM482.657 133.661a3.882 3.882 0 0 1-1.775 2.279c-.396.224-.517-.311-.121-.518.586-.328 1-.881 1.207-1.433.034-.104.069-.207.086-.311.103-.362.12-.725.034-1.053a.595.595 0 0 0-.241-.363s-.017 0-.034-.017c-.018 0-.052 0-.052-.017h-.086a.58.58 0 0 0-.293.034 1.102 1.102 0 0 0-.483.328c-.189.19-.293.363-.413.587a2.041 2.041 0 0 0-.173.328v.069s-.069.07-.069.104c0 .017-.034.052-.017.069h-.603c.121-.345.31-.708.551-1.053.414-.57.983-1.036 1.62-1.07.569-.018.879.379.965.846.069.379.035.794-.086 1.225l-.017-.034ZM486 133.592a3.878 3.878 0 0 1-1.775 2.279c-.396.224-.517-.311-.12-.518.586-.328.999-.881 1.206-1.433.034-.104.069-.207.086-.311.103-.362.121-.725.035-1.053a.596.596 0 0 0-.242-.362s-.017 0-.034-.018c-.017 0-.052 0-.052-.017h-.086a.572.572 0 0 0-.293.035 1.082 1.082 0 0 0-.482.328c-.19.189-.293.362-.414.587a1.886 1.886 0 0 0-.172.328v.069s-.069.069-.069.103c0 .017-.035.052-.018.069h-.603c.121-.345.31-.708.552-1.053.413-.57.982-1.036 1.62-1.07.568-.018.878.38.965.846.068.38.034.794-.087 1.225l-.017-.034ZM489.343 133.523c-.241.863-.861 1.761-1.774 2.279-.397.224-.517-.311-.121-.518.586-.328.999-.88 1.206-1.433.035-.103.069-.207.086-.311.104-.362.121-.725.035-1.053a.599.599 0 0 0-.241-.362s-.018 0-.035-.018c-.017 0-.052 0-.052-.017h-.086a.573.573 0 0 0-.293.035 1.088 1.088 0 0 0-.482.328 2.26 2.26 0 0 0-.414.587c-.069.103-.12.207-.172.328v.069s-.069.069-.069.103c0 .018-.035.052-.017.069h-.603c.12-.345.31-.707.551-1.053.414-.569.982-1.036 1.62-1.07.568-.017.879.38.965.846.069.38.034.794-.086 1.226l-.018-.035ZM492.669 133.437a3.882 3.882 0 0 1-1.775 2.279c-.396.224-.517-.311-.12-.518.585-.328.999-.881 1.206-1.433.034-.104.069-.207.086-.311.103-.363.121-.725.034-1.053a.593.593 0 0 0-.241-.363s-.017 0-.034-.017c-.018 0-.052 0-.052-.017h-.086a.57.57 0 0 0-.293.034 1.107 1.107 0 0 0-.483.328c-.189.19-.293.363-.413.587a1.922 1.922 0 0 0-.172.328v.069s-.069.069-.069.104c0 .017-.035.052-.018.069h-.603c.121-.345.31-.708.552-1.053.413-.57.982-1.036 1.619-1.071.569-.017.879.38.965.846.069.38.035.795-.086 1.226l-.017-.034ZM496.012 133.368a3.882 3.882 0 0 1-1.775 2.279c-.396.224-.517-.311-.121-.518.586-.328 1-.881 1.207-1.433.034-.104.069-.207.086-.311.103-.362.12-.725.034-1.053a.595.595 0 0 0-.241-.363s-.017 0-.034-.017c-.018 0-.052 0-.052-.017h-.086a.58.58 0 0 0-.293.034 1.102 1.102 0 0 0-.483.328c-.189.19-.293.363-.413.587a2.041 2.041 0 0 0-.173.328v.069s-.069.07-.069.104c0 .017-.034.052-.017.069h-.603c.121-.345.31-.708.551-1.053.414-.57.983-1.036 1.62-1.07.569-.018.879.379.965.846.069.379.035.794-.086 1.225l-.017-.034ZM499.355 133.298a3.876 3.876 0 0 1-1.775 2.279c-.396.225-.517-.31-.12-.518.585-.328.999-.88 1.206-1.432.034-.104.069-.208.086-.311.103-.363.121-.725.035-1.053a.595.595 0 0 0-.242-.363s-.017 0-.034-.017c-.017 0-.052 0-.052-.017h-.086a.571.571 0 0 0-.293.034 1.107 1.107 0 0 0-.483.328c-.189.19-.292.363-.413.587a1.922 1.922 0 0 0-.172.328v.069s-.069.069-.069.104c0 .017-.035.052-.018.069h-.603c.121-.345.31-.708.552-1.053.413-.57.982-1.036 1.62-1.071.568-.017.878.38.965.846.068.38.034.794-.087 1.226l-.017-.035ZM502.698 133.23a3.878 3.878 0 0 1-1.775 2.279c-.396.224-.516-.311-.12-.518.586-.328.999-.881 1.206-1.433.035-.104.069-.208.086-.311.104-.363.121-.725.035-1.053a.598.598 0 0 0-.242-.363s-.017 0-.034-.017c-.017 0-.052 0-.052-.017h-.086a.572.572 0 0 0-.293.034 1.105 1.105 0 0 0-.482.328c-.19.19-.293.363-.414.587-.069.104-.12.207-.172.328v.069s-.069.069-.069.104c0 .017-.035.052-.017.069h-.603c.12-.345.31-.708.551-1.053.414-.57.982-1.036 1.62-1.071.568-.017.879.38.965.846.069.38.034.795-.086 1.226l-.018-.034ZM506.041 133.16a3.876 3.876 0 0 1-1.775 2.279c-.396.225-.517-.311-.12-.518.586-.328.999-.88 1.206-1.433.034-.103.069-.207.086-.31.103-.363.121-.726.034-1.054a.59.59 0 0 0-.241-.362s-.017 0-.034-.017c-.017 0-.052 0-.052-.018h-.086a.572.572 0 0 0-.293.035 1.099 1.099 0 0 0-.482.328 2.26 2.26 0 0 0-.414.587 1.886 1.886 0 0 0-.172.328v.069s-.069.069-.069.104c0 .017-.035.051-.018.069h-.603c.121-.346.31-.708.552-1.054.413-.569.982-1.035 1.62-1.07.568-.017.878.38.965.846.069.38.034.794-.087 1.226l-.017-.035ZM509.367 133.091a3.88 3.88 0 0 1-1.775 2.279c-.396.225-.517-.31-.121-.518.586-.328 1-.88 1.207-1.433.034-.103.069-.207.086-.31.103-.363.12-.725.034-1.053a.59.59 0 0 0-.241-.363s-.017 0-.034-.017c-.018 0-.052 0-.052-.017h-.086a.56.56 0 0 0-.293.034 1.102 1.102 0 0 0-.483.328c-.189.19-.293.363-.413.587a2 2 0 0 0-.173.328v.069s-.069.069-.069.104c0 .017-.034.052-.017.069h-.603c.121-.346.31-.708.551-1.053.414-.57.983-1.036 1.62-1.071.569-.017.879.38.965.846.069.38.035.794-.086 1.226l-.017-.035Z" fill="#C8C8C8"></path><path d="M508.04 145.557c2.017 4.73 7.324 10.704 7.634 14.519.276 3.436-2.602 4.523-2.602 4.523s3.705 2.038 3.412 5.542c-.155 1.796-3.153 3.142-3.153 3.142s2.895 1.761 2.447 4.852c-.362 2.468-3.309 3.435-3.309 3.435s1.982 2.987.827 5.387c-2.378 4.851-23.728 4.022-26.71-3.988-1.395-3.729 3.809-3.246 3.809-3.246s-7.307-2.521-7.255-6.923c.069-4.42 6.789-3.367 6.789-3.367s-7.065-2.503-6.548-7.061c.552-4.765 7.1-2.555 7.1-2.555s-4.618-3.418-3.412-6.819c1.982-5.629 10.684 1.899 15.423.966l2.895-7.648 2.705-.725-.052-.034Z" fill="#FFABA1"></path><path d="M512.056 152.462c-1.517-4.644 4.359-10.065 3.549-14.709-1.102-6.284-8.34-.449-10.253 8.546l-.258 7.234 6.979-1.071h-.017Z" fill="#FFABA1"></path><path d="M511.987 181.794s.086.104 0 .104c-7.083 1.433-15.32.846-21.937-2.176-.224-.103-.155-.5.103-.431 7.427 1.812 14.148 2.814 21.816 2.503h.018ZM513.417 173.317s.086.138 0 .156c-7.307 1.433-16.561.518-23.781-3.868-.241-.155-.327-.535-.017-.379 5.032 2.555 16.905 4.419 23.815 4.109l-.017-.018ZM490.015 159.299c7.083 3.936 14.717 5.197 22.747 5.369.103 0 .086.156 0 .173-3.946.984-9.047.345-12.993-.484-3.757-.794-6.997-2.278-9.909-4.799-.121-.104 0-.328.138-.242l.017-.017Z" fill="#1A2E35"></path><path d="M414.9 111.752c.414 1.088 4.549 8.322 9.719 8.322 3.24 0 2.464-11.153 2.464-11.153l.052-.691.758-9.72-12.062-5.507-1.741-.708s-.034 2.676-.034 6.008v2.521c0 .38 0 .76.017 1.157 0 .414.017.794.034 1.208.155 4.006.655 8.097.827 8.563h-.034Z" fill="#FFABA1"></path><path d="M414.056 98.286c3.774 7.113 10.184 9.306 13.079 9.944l.758-9.72-12.062-5.507-1.741-.708s-.034 2.676-.034 6.008v-.017Z" fill="#1A2E35"></path><path d="M441.283 86.046c-.448 17.126-10.719 18.783-14.406 18.68-3.343-.087-14.717-.829-16.044-17.903-1.326-17.075 6.755-22.271 14.424-22.479 7.668-.207 16.474 4.575 16.043 21.684l-.017.018Z" fill="#FFABA1"></path><path d="M437.199 81.747c-.397-.086-.741-.225-1.138-.345-.431-.139-.792-.19-1.085-.57-.155-.19-.121-.57.069-.742.413-.398.982-.363 1.516-.225.569.155.982.414 1.327.898.344.466-.155 1.087-.672.984h-.017ZM426.067 80.866c.396 0 .775-.086 1.172-.155.448-.07.809-.07 1.171-.38.19-.172.207-.535.052-.742-.345-.466-.913-.518-1.447-.466a2.194 2.194 0 0 0-1.448.673c-.414.397-.034 1.088.5 1.07ZM428.151 85.373s-.086.051-.103.103c-.034 1.174-.258 2.504-1.327 2.814-.034 0-.034.07 0 .07 1.293-.104 1.586-1.882 1.43-2.987Z" fill="#1A2E35"></path><path d="M427.187 84.112c-1.862-.258-2.223 3.488-.5 3.73 1.689.224 2.068-3.522.5-3.73Z" fill="#1A2E35"></path><path d="M426.429 84.233c-.345.173-.707.518-1.103.518-.466 0-.758-.431-1.034-.829-.035-.034-.069 0-.069.035-.086.725.12 1.485.879 1.657.689.173 1.258-.414 1.499-1.122.052-.138-.052-.345-.19-.259h.018ZM434.614 85.804s.086.07.086.104c-.155 1.156-.138 2.503.862 3.004.034 0 .017.069 0 .069-1.258-.31-1.258-2.106-.931-3.177h-.017Z" fill="#1A2E35"></path><path d="M435.768 84.716c1.879.052 1.637 3.816-.103 3.764-1.706-.052-1.465-3.798.103-3.764Z" fill="#1A2E35"></path><path d="M436.526 85.01c.276.225.552.605.914.639.413.052.741-.328 1.034-.708.034-.034.051 0 .051.052-.034.725-.31 1.45-1.016 1.537-.638.086-1.052-.57-1.172-1.295-.017-.138.086-.328.207-.242l-.018.017ZM427.428 94.626c.241.311.465.726.879.812.396.086.896-.017 1.275-.12.034 0 .069.034.034.068-.362.397-1.034.587-1.551.415-.499-.173-.706-.657-.758-1.157 0-.07.086-.087.121-.035v.017ZM432.649 90.845s.087 1.761.018 2.573c0 .069-.207.103-.483.086h-.034c-1.465.103-2.878-.518-3.654-1.778-.051-.087.069-.156.138-.104 1.017.88 2.189 1.191 3.464 1.33.069-.225-.259-3.004-.121-3.004.448 0 1.31.38 1.827.586-.086-3.66-.758-7.285-.776-10.928 0-.138.19-.155.224-.034.965 3.746 1.155 7.958 1.345 11.74.034.466-1.603-.294-1.913-.45l-.035-.017Z" fill="#1A2E35"></path><path d="M431.667 93.02s-.758.933-1.74 1.226c-.362.121-.759.156-1.155.017-.827-.258-.81-1.018-.62-1.657.155-.535.413-.984.413-.984s1.155 1.191 3.102 1.398Z" fill="#1A2E35"></path><path d="M429.927 94.264c-.362.12-.759.155-1.155.017-.827-.259-.81-1.019-.62-1.657.878.138 1.74.776 1.775 1.64Z" fill="#FF9CBF"></path><path d="M410.696 84.388c1.861.26 7.685-3.867 9.598-12.758 0 0-2.275 7.872-3.102 8.925-.827 1.054 3.257-2.33 4.894-9.478 0 0 3.412 3.678 6.617 5.3 3.205 1.623 5.291 2.003 5.584 1.813.292-.19-4.395-2.762-5.429-4.592 0 0 8.186 6.008 12.287 7.148.465.138 3.016-9.669-2.585-15.159-5.6-5.49-16.681-2.97-19.955-.863 0 0-3.308-.19-7.754 3.885-4.446 4.074-2.172 15.52-.155 15.797v-.018Z" fill="#1A2E35"></path><path d="M413.746 86.201s-3.102-5.731-5.67-4.678c-2.55 1.053-.637 9.064 2.068 10.445 2.705 1.364 4.015-1.105 4.015-1.105l-.431-4.644.018-.018Z" fill="#FFABA1"></path><path d="M408.697 83.802s-.069.051-.018.069c1.896 1.035 2.723 2.986 3.24 4.972-.5-.794-1.258-1.295-2.326-.708-.052.034 0 .12.034.104.827-.087 1.396.12 1.878.846.345.5.535 1.122.759 1.674.069.19.396.121.362-.086v-.052c.327-2.52-1.224-6.284-3.912-6.854l-.017.035Z" fill="#1A2E35"></path><path d="M109.269 456.022c2.499.812 73.616-.121 76.305-1.881 1.034-.657 1.499-11.05 1.706-23.618v-.397c.051-2.59.086-5.266.086-7.959v-1.122c.103-18.145-.19-36.963-.19-36.963l-47.578.483 1.43 36.618.052 1.45.293 7.579.034.777s-27.071 12.551-29.811 14.796c-2.723 2.244-4.825 9.426-2.327 10.22v.017Z" fill="#FB6A55"></path><path d="M187.349 425.171c0 1.692-.035 3.332-.069 4.972v.397c-.207 12.568-.672 22.961-1.706 23.6-2.688 1.761-73.806 2.694-76.304 1.882-2.482-.794-.397-7.976 2.343-10.22 2.74-2.262 29.812-14.813 29.812-14.813l-.035-.777-.172-4.593 46.131-.466v.018Z" fill="#ECECEC"></path><path d="M130.637 435.874c.189-.052.275-.103.292-.155 0 0-.103.052-.292.155Z" fill="#FFC800"></path><path d="M108.977 456.143c2.498.812 73.977-.034 76.683-1.795 1.034-.656 1.516-11.101 1.74-23.722l-46.079.415s-27.226 12.586-29.984 14.83c-2.74 2.244-4.876 9.461-2.36 10.272Z" fill="#C8C8C8"></path><path d="M187.4 430.626c-.224 12.62-.706 23.048-1.74 23.721-1.12.726-14.096 1.295-29.054 1.658l25.797-25.344 5.015-.052-.018.017Z" fill="#A8A8A8"></path><path d="M109.959 453.26c11.976-.431 60.33-1.053 72.203-.57.103 0 .103.069 0 .069-11.856.691-60.209.915-72.203.691-.258 0-.258-.19 0-.19ZM136.686 432.284c4.791-.121 10.374 1.502 13.407 5.403.12.156-.104.311-.242.242-4.359-2.193-8.495-3.815-13.234-5.058-.327-.087-.276-.587.069-.587ZM132.998 433.768c4.791-.12 10.374 1.502 13.407 5.404.121.156-.103.311-.241.242-4.36-2.193-8.496-3.816-13.234-5.059-.328-.086-.276-.587.068-.587ZM129.31 435.253c4.791-.121 10.374 1.502 13.407 5.404.121.155-.103.311-.241.242-4.36-2.193-8.496-3.816-13.234-5.059-.328-.086-.276-.587.068-.587ZM125.64 436.755c4.791-.121 10.374 1.502 13.407 5.404.12.155-.104.311-.242.242-4.359-2.193-8.495-3.816-13.234-5.059-.327-.086-.276-.587.069-.587Z" fill="#1A2E35"></path><path d="M201.789 178.842s-10.684 120.402-12.424 129.587c-.396 2.089-.655 13.466-.81 28.106-.362 31.922-.155 89.482-.155 89.482h-50.129s1.482-99.737 3.705-118.089c2.223-18.369 16.405-129.068 16.405-129.068h43.408v-.018Z" fill="#EE1E8C"></path><path d="M140.529 417.264c7.823-.156 5.583-.225 13.407-.311 3.825-.035 28.984-.259 32.568.345.087 0 .087.138 0 .156-3.584.587-28.743.379-32.568.345-7.824-.069-5.584-.138-13.407-.311-.155 0-.155-.224 0-.224ZM178.871 360.239l.155-21.856c.051-7.061.034-14.123.379-21.167.672-14.277 3.567-28.313 5.617-42.418 2.051-14.123 3.774-28.297 5.325-42.471 1.741-15.917 3.274-31.853 4.911-47.77 0-.104.173-.104.173 0-2.361 28.434-4.998 56.851-8.927 85.113a856.93 856.93 0 0 1-3.205 21.046c-1.172 7.095-2.326 14.174-2.895 21.356-.551 7.009-.637 14.053-.706 21.097-.069 7.285-.138 14.554-.224 21.839-.155 16.177-.311 41.055-.466 57.232 0 .311-.482.293-.482 0 .103-14.416.224-37.568.327-51.983l.018-.018Z" fill="#1A2E35"></path><path opacity=".1" d="M212.353 178.842s-21.248 120.402-22.988 129.587c-.397 2.089-.655 13.466-.81 28.106v.052L164.654 178.86h47.699v-.018Z" fill="#000"></path><path d="M167.48 460.269c2.55.622 73.427-5.334 75.977-7.285.982-.725.724-11.119.034-23.67 0-.138 0-.259-.017-.397-.138-2.59-.293-5.248-.482-7.942-.018-.379-.052-.742-.069-1.122-1.189-18.11-2.792-36.859-2.792-36.859l-47.423 3.85 4.015 36.428.155 1.45.827 7.544.086.777s-26.106 14.433-28.691 16.885c-2.568 2.417-4.153 9.737-1.603 10.358l-.017-.017Z" fill="#FB6A55"></path><path d="M243.457 452.984c-2.551 1.951-73.427 7.907-75.977 7.285-2.551-.621-.948-7.941 1.602-10.358 2.585-2.435 28.692-16.885 28.692-16.885l-.069-.777-.5-4.558 45.976-3.85c.103 1.709.207 3.401.293 5.059 0 .138 0 .259.017.397.672 12.551.948 22.962-.034 23.687Z" fill="#ECECEC"></path><path d="M186.297 438.636c.155-.069.258-.12.258-.155l-.258.155Z" fill="#FFC800"></path><path d="M167.273 460.321c2.551.639 73.788-5.162 76.373-7.113.983-.725.741-11.17.104-23.79l-45.941 3.608s-26.28 14.451-28.882 16.868c-2.584 2.434-4.204 9.788-1.654 10.41v.017Z" fill="#C8C8C8"></path><path d="M168.066 457.386c11.925-1.26 60.106-5.248 71.979-5.594.103 0 .103.07 0 .07-11.787 1.519-60.003 5.093-71.979 5.714-.259 0-.259-.173 0-.19ZM193.276 434.597c4.774-.449 10.46.777 13.734 4.454.121.139-.068.329-.224.259-4.497-1.881-8.736-3.211-13.544-4.126-.345-.069-.31-.569.034-.604v.017ZM189.692 436.341c4.774-.449 10.46.777 13.734 4.454.121.138-.068.328-.224.259-4.497-1.882-8.736-3.211-13.544-4.126-.345-.069-.31-.57.034-.604v.017ZM186.125 438.085c4.773-.449 10.46.776 13.734 4.454.121.138-.069.328-.224.259-4.498-1.882-8.737-3.211-13.544-4.126-.345-.07-.311-.57.034-.605v.018ZM182.558 439.828c4.773-.449 10.46.777 13.734 4.454.121.139-.069.328-.224.259-4.497-1.881-8.737-3.211-13.544-4.126-.345-.069-.311-.57.034-.604v.017Z" fill="#1A2E35"></path><path d="m195.448 427.847 50.077-3.47s-13.459-107.886-13.717-114.653c-.379-10.066-5.187-51.587-9.237-85.2 0 0 7.669-18.197-6.686-45.699H158.33s3.86 26.173 10.46 42.764c0 0 5.031 1.553 12.803 5.852 0 0 5.721 74.962 5.945 84.32.431 18.49 7.91 116.12 7.91 116.12v-.034Z" fill="#EE1E8C"></path><path d="M196.809 418.662c7.789-.708 5.549-.622 13.338-1.243 3.808-.311 28.898-2.279 32.5-1.934.086 0 .086.138 0 .156-3.533.846-28.64 2.382-32.465 2.607-7.807.466-5.566.259-13.39.638-.155 0-.155-.207 0-.224h.017ZM166.618 220.432c5.187 1.796 10.202 4.333 14.975 6.992.19.104.069.397-.138.311-5.049-2.175-10.184-4.247-15.113-6.699-.379-.19-.12-.742.276-.604ZM229.033 364.4a20500.904 20500.904 0 0 1-4.652-46.044c-1.534-15.279-3.033-30.558-4.55-45.837-.758-7.596-1.499-15.21-2.24-22.806-.724-7.372-1.62-14.744-1.378-22.168.413-12.793 3.394-26.345-1.103-38.758a33.556 33.556 0 0 0-1.861-4.178c-.069-.121-.224 0-.173.103 6.066 12.12 3.481 26.19 2.671 39.139-.448 7.182 0 14.243.707 21.39l2.171 22.582c1.448 15.21 2.93 30.403 4.429 45.613a7930.758 7930.758 0 0 0 4.601 45.595c1.585 15.21 3.205 30.403 5.083 45.561.224 1.864.466 3.729.707 5.576 0 .104.172.104.172 0-1.413-15.279-2.981-30.541-4.532-45.802l-.052.034Z" fill="#1A2E35"></path><path d="M187.245 293.478c-.861-13.95-1.826-27.9-3.015-41.832-.672-7.873-1.482-16.211-2.534-24.049 0-.069-.31-.259-.292-.173.741 13.95 2.154 28.538 3.17 42.47 1.017 13.95 1.758 27.9 2.551 41.867.448 7.872.965 15.745 1.482 23.617 0 .138.224.138.224 0-.155-13.984-.724-27.951-1.586-41.9ZM172.201 208.036c-.275-2.348-.586-4.713-.844-7.061-.517-4.678-.965-9.374-1.43-14.053-.259-2.676-.431-5.352-.621-8.028 0-.138-.206-.121-.206 0-.225 9.444.344 18.956 1.964 28.262.465 2.641.862 5.404 1.74 7.942.035.086.173.069.173-.035-.069-2.348-.5-4.696-.776-7.044v.017ZM178.026 200.526c-.414-4.782-.931-9.564-1.379-14.347-.258-2.745-.448-5.507-.723-8.252 0-.052-.087-.052-.087 0 .035 4.8.293 9.599.569 14.381.276 4.8.655 9.582 1.292 14.347.362 2.745.776 5.473 1.207 8.218.017.121.207.121.207 0-.362-4.782-.638-9.565-1.052-14.347h-.034Z" fill="#1A2E35"></path><path opacity=".1" d="m223.554 200.233-10.409-1.019-4.325-.414-6.445-.639-2.292-.224-4.601-.449-.448-.052-.672-.069-.396-.052-24.384-2.365-1.085-.104-1.448-.138-5.101-.5-.792-.069-.741-.069-.948-.104-2.981-.294c1.051-8.235 1.758-13.725 1.878-14.692v-.017c0-.121-.017-.172-.017-.172h57.556c4.187 7.993 6.496 15.209 7.668 21.425l-.017.017Z" fill="#000"></path><path d="M179.646 124.494c-1.654 7.199-21.764 72.614-25.866 73.598-12.097 2.9-26.658 5.093-26.572-4.886.138-15.659 27.624-54.158 42.099-70.214 8.668-9.599 11.993-5.594 10.356 1.502h-.017Z" fill="#FB6A55"></path><path d="m172.098 152.169-18.731-11.533s10.494-13.397 17.594-20.355c7.082-6.957 12.097-6.595 8.65 7.51-3.463 14.123-7.496 24.378-7.496 24.378h-.017Z" fill="#EE1E8C"></path><path d="M172.701 146.247a163.19 163.19 0 0 0-7.668-4.558c-1.275-.725-2.55-1.45-3.843-2.141-1.344-.725-2.722-1.346-4.049-2.054-.086-.052-.19.086-.086.138 1.257.742 2.481 1.571 3.739 2.313 1.292.777 2.619 1.502 3.946 2.228a183.778 183.778 0 0 0 7.892 4.195c.069.034.156-.069.069-.121Z" fill="#1A2E35"></path><path d="M156.71 187.129s44.028 1.916 62.656-.311c0 0-12.752-53.899-26.313-68.436-6.169-6.612-12.218-5.593-17.336-1.346-1.275 1.07-17.112 21.183-18.438 28.21-1.189 6.198 3.842 13.086 3.842 13.086l-4.411 28.797Z" fill="#EE1E8C"></path><path d="M160.742 136.769c.948-1.433 1.93-2.866 2.929-4.265.173-.5.362-.984.552-1.45.31-.69.62-1.398 1.034-2.037-.19.742-.483 1.45-.758 2.158-.087.207-.173.38-.259.587a90.813 90.813 0 0 1 3.136-4.04c-1.981 3.177-4.135 6.233-6.134 9.375-1.017 1.571-1.982 3.142-2.775 4.817a14.006 14.006 0 0 0-.672 1.657c-.396 1.398-1.154 4.299.414 8.736.517 1.484.913 3.004 1.671 4.385.052.103-.103.19-.155.086-.758-1.398-1.413-2.952-2.016-4.437-.586-1.45-.862-3.073-.965-4.627-.276-4.488 1.999-7.492 4.015-10.945h-.017Z" fill="#1A2E35"></path><path opacity=".1" d="M194.035 138.029h-13.217v2.538h13.217v-2.538Z" fill="#000"></path><path d="M191.105 125.616c4.205 5.783 25.763 29.643 26.555 31.87.793 2.227-4.187 7.113-4.118 8.028.327 3.729 8.392 28.59 11.614 26.069 4.239-3.332 22.213-27.157 19.679-37.464-2.55-10.307-44.528-35.081-51.179-37.222-6.652-2.141-6.704 3.022-2.551 8.736v-.017Z" fill="#FB6A55"></path><path d="m208.045 147.369 12.252-17.23s-13.7-8.995-22.85-12.879c-9.133-3.867-13.683-1.692-5.29 10.168 8.374 11.861 15.888 19.941 15.888 19.941Z" fill="#EE1E8C"></path><path d="M216.661 129.017a179.264 179.264 0 0 0-5.652 6.906c-.897 1.157-1.827 2.296-2.706 3.487-.913 1.209-1.74 2.486-2.636 3.712-.069.086.051.19.12.104.914-1.14 1.913-2.21 2.844-3.35.947-1.174 1.861-2.382 2.791-3.573a168.022 168.022 0 0 0 5.325-7.2c.052-.069-.052-.155-.103-.086h.017ZM208.062 147.455c-1.878-2.503-4.084-4.713-6.118-7.095-2.033-2.383-4.049-4.8-5.979-7.269-.052-.051-.138 0-.104.069.897 1.278 1.775 2.573 2.706 3.833.465.622.948 1.226 1.447 1.83-.241-.19-.465-.397-.723-.587-.741-.57-1.517-1.07-2.309-1.571-.035-.034-.087.035-.052.069.689.622 1.396 1.243 2.137 1.796.534.397 1.102.777 1.654 1.156.293.346.569.691.862 1.036 1.964 2.4 3.946 4.817 6.324 6.82.069.051.189-.035.12-.104l.035.017Z" fill="#1A2E35"></path><path d="M214.61 201.009c-2.878-1.951 1.068-4.229 1.068-4.229s-6.462 1.916-8.667-1.243c-2.103-3.056 2.757-5.646 3.101-5.836-.344.104-6.341 1.709-8.202-1.709-1.947-3.539 3.377-5.3 3.722-5.421-.345 0-5.015-.207-5.859-3.125-1.43-5.007 11.959-5.576 14.854-8.649 0 0-1.292-6.613-1.396-6.785 0 0 1.482 2.572 3.809 3.245 2.895.829 5.514 1.295 6.686 2.694 1.93 2.296.431 4.54.431 4.54s3.67-.431 5.221 2.21c.793 1.347-.655 3.833-.655 3.833s2.947-.225 4.188 2.21c.999 1.933-.621 4.126-.621 4.126s2.93 1.105 3.309 3.418c.775 4.662-14.837 14.899-21.006 10.721h.017Z" fill="#FB6A55"></path><path d="M232.118 187.267s.121.017.069.069c-4.308 4.627-10.46 8.373-16.698 9.582-.207.034-.362-.276-.138-.363 6.187-2.486 11.477-5.179 16.767-9.288ZM228.844 180.517s.138.051.086.103c-4.463 4.731-11.511 8.771-18.869 9.323-.259.017-.5-.224-.207-.259 4.859-.742 14.251-5.438 19.007-9.167h-.017ZM205.115 182.433c7.031-.811 13.097-3.781 18.887-7.734.069-.052.138.069.086.121-2.309 2.71-6.255 4.851-9.478 6.249-3.084 1.347-6.134 1.934-9.478 1.623-.137 0-.172-.224-.034-.242l.017-.017Z" fill="#1A2E35"></path><path d="M232.514 186.87c1.034-1.312 1.741-2.952 1.034-4.592a3.46 3.46 0 0 0-1.637-1.692c-.896-.432-2.137-.276-2.74-.259.896-1.519 1.224-3.505.069-4.972-.534-.691-1.275-.967-2.137-1.14-.465-.086-2.343-.052-2.86.121.793-.915 1.103-2.227.827-3.401-.327-1.364-1.344-2.279-2.585-2.849-1.43-.638-3.015-.759-4.532-1.053-.793-.155-1.568-.311-2.309-.639-.672-.31-1.258-.742-1.93-1.726-.086-.138-.086 0 0 .121.379.587.672.949 1.137 1.364.483.414 1 .742 1.568 1.018 1.362.656 2.878.812 4.309 1.261 1.257.397 2.481 1.036 3.239 2.14.793 1.14.758 2.607.121 3.799-.035.051 0 .138.103.138.621-.052 2.154.155 2.551.293.672.225 1.361.535 1.792 1.122.948 1.313.913 3.16.224 4.627-.017.052 1.516.035 2.688.691.551.311.982.846 1.275 1.416.672 1.329.483 3.004-.413 4.178v.086c0 .017 0 .034.034.052 0 0 .931.397.982.397.035 0 .018-.035 0-.052a7.104 7.104 0 0 0-.775-.449h-.035Z" fill="#1A2E35"></path><path d="M164.676 141.207 126.935 153.5l15.973 49.223 37.741-12.293-15.973-49.223Z" fill="#27BFF1"></path><path d="m137.632 153.233 17.888-5.851-1.77-5.433-17.889 5.851 1.771 5.433Z" fill="#1A2E35"></path><path d="m139.943 146.471 2.205-.725-.827-2.503 5.36-1.744.809 2.504 2.206-.725-1.482-4.558-9.788 3.194 1.517 4.557Z" fill="#1A2E35"></path><path d="M172.253 159.955c2.085 1.933.827 4.609.827 4.609s2.258.363 3.55 2.124c1.499 2.02-.999 5.248-.999 5.248s2.205.846 3.394 2.832c1.241 2.071-.827 5.697-.827 5.697s1.62 1.916 1.413 4.385c-.344 4.213-6.083 7.182-9.719 9.098-3.636 1.917-15.716 3.954-17.973 4.576l-12.476-23.221s13.82-13.242 18.421-14.882c3.86-1.381 12.045-2.641 14.389-.449v-.017Z" fill="#FB6A55"></path><path d="M141.08 173.749c-4.135 3.263-16.525 15.797-13.492 22.064 3.032 6.267 13.096 5.507 27.037 2.106l-13.545-24.17Z" fill="#FB6A55"></path><path d="M172.719 164.271c-4.464.483-8.53 2.279-12.701 3.815-.086.035-.034.173.052.138 4.119-1.588 8.513-2.33 12.7-3.763.121-.035.069-.225-.051-.207v.017ZM175.389 171.677c-.999.138-1.964.622-2.895 1.019-.999.431-1.981.88-2.964 1.329a107.976 107.976 0 0 0-5.824 2.918c-.086.052-.035.19.052.138a182.605 182.605 0 0 1 5.927-2.641c1-.415 1.999-.829 3.016-1.226.931-.38 1.947-.691 2.792-1.26.12-.087.051-.294-.104-.277ZM178.129 180.5c-.878.086-1.775.656-2.55 1.053-.879.431-1.775.88-2.671 1.294-1.775.864-3.567 1.71-5.376 2.504-.087.034-.035.19.051.138 1.844-.794 3.705-1.571 5.532-2.383.896-.397 1.809-.811 2.705-1.208.758-.345 1.758-.691 2.344-1.312.034-.035 0-.086-.052-.086h.017ZM140.529 173.956c-1.499 1.243-2.74 2.141-4.101 3.591-.328.345-.638.691-.965 1.036-.138.086-.276.19-.414.276-.586.397-1.172.812-1.723 1.261-1.069.88-2.051 1.847-2.999 2.848-.068.069.035.173.121.104 1-.967 2.068-1.848 3.188-2.676.155-.104.293-.207.448-.311-.534.622-1.068 1.243-1.551 1.882-1.292 1.744-2.516 3.487-3.584 5.386-.052.087.086.156.138.069 1.999-3.297 10.77-12.171 11.718-13.241.982-1.088.465-.846-.276-.242v.017Z" fill="#1A2E35"></path><path d="M192.932 120.644c.172-5.352-5.6-7.044-9.615-7.441-4.739-.484-8.255 1.07-10.357 5.732-2.223 4.92-2.516 10.565-3.257 15.883-.138 1.001-1.689.811-1.551-.19.862-6.146 1.465-18.007 7.41-21.529 5.48-3.263 19.197-1.329 18.921 7.735-.034 1.001-1.585.811-1.551-.19Z" fill="#375A64"></path><path d="M165.033 137.217a3.593 3.593 0 0 0 3.119 4.006 3.592 3.592 0 0 0 .879-7.13 3.587 3.587 0 0 0-3.998 3.124Z" fill="#1A2E35"></path><path d="M166.446 137.39a2.158 2.158 0 0 0 1.878 2.417c1.189.156 2.258-.69 2.413-1.881a2.158 2.158 0 0 0-1.878-2.417c-1.189-.156-2.258.69-2.413 1.881Z" fill="#ECECEC"></path><path d="M188.141 137.545c-3.394 15.124-2.653 18.767-1.344 20.441 1.379 1.761 3.516 2.676 3.619 2.711l.414-1.001s-1.982-.846-3.171-2.366c-.948-1.208-1.81-4.557 1.551-19.526l-1.069-.241v-.018Z" fill="#C8C8C8"></path><path d="M189.124 159.42a1.152 1.152 0 0 0 .517 1.553l1.292.657a1.15 1.15 0 0 0 1.551-.518 1.152 1.152 0 0 0-.517-1.554l-1.292-.656a1.148 1.148 0 0 0-1.551.518Z" fill="#1A2E35"></path><path d="M197.912 137.563c3.377 11.187 4.325 17.333 2.964 19.37-1.086 1.623-2.964 2.59-2.999 2.607l.483.967c.086-.052 2.154-1.105 3.412-2.969 1.62-2.417.793-8.305-2.826-20.286l-1.034.311Z" fill="#C8C8C8"></path><path d="M199.567 159.143a1.156 1.156 0 0 1-.397 1.589l-1.241.742a1.15 1.15 0 0 1-1.585-.397 1.155 1.155 0 0 1 .396-1.588l1.241-.743a1.151 1.151 0 0 1 1.586.397ZM199.308 136.769c-.362-1.554-1.413-5.387-2.206-7.32-.655-1.571-2.274-2.59-2.274-2.59-.207 0-.19-1.916-.138-3.47.051-1.381.138-2.97-.207-3.401-.327-.415-1.155-.415-1.499-.018-.362.415-.328 2.02-.31 3.402 0 1.553-.035 3.47-.242 3.47 0 0-1.551 1.036-2.223 2.555-.758 1.692-2.085 6.163-2.326 7.475-.293 1.623.241 1.796.707 1.934.654.19 1.051-.259 1.499-2.054.706-2.849 1.551-7.614 3.515-7.683 1.947.121 2.912 5.11 3.653 7.89.448 1.743.827 1.899 1.5 1.709.465-.121.947-.345.585-1.882l-.034-.017Z" fill="#1A2E35"></path><path d="M189.347 116.863c-.292 1.156-5.927 8.632-11.235 8.304-1.723-.104-1.551-9.582-1.551-9.582l-.155-.708-2.051-9.823 11.581-7.217 1.671-.95s.379 2.728.827 6.13c.017.155.035.31.069.483.035.19.069.38.086.552.069.501.138 1.019.207 1.537.052.397.103.777.138 1.191.052.415.086.812.121 1.243.361 4.109.396 8.356.292 8.84Z" fill="#FB6A55"></path><path d="M188.451 103.034c-2.912 7.752-9.167 10.842-12.045 11.878l-2.051-9.824 11.581-7.216 1.671-.95s.379 2.728.827 6.129l.017-.017Z" fill="#1A2E35"></path><path d="M162.862 86.132c-3.74 17.213 6.117 21.391 9.822 22.202 3.36.725 14.906 2.797 20.403-13.932 5.497-16.73-1.292-23.912-8.909-25.983-7.599-2.072-17.577.518-21.316 17.713Z" fill="#FB6A55"></path><path d="M168.169 83.629c.414.034.81 0 1.207-.017.465 0 .844.034 1.24-.26.207-.155.276-.535.138-.742-.293-.518-.861-.639-1.43-.656-.603 0-1.086.138-1.551.518-.465.363-.155 1.122.396 1.157ZM180.077 86.028c-.397-.12-.741-.31-1.12-.466-.431-.19-.793-.293-1.052-.708-.137-.224-.051-.587.155-.742.466-.362 1.052-.259 1.569-.069.568.224.947.535 1.24 1.07.293.518-.275 1.088-.792.915ZM176.527 89.74s.086.07.069.121c-.293 1.157-.431 2.538.534 3.16.034.017 0 .069-.017.069-1.258-.467-1.051-2.297-.586-3.35Z" fill="#1A2E35"></path><path d="M177.836 88.739c1.913.276 1.224 4.074-.534 3.833-1.74-.242-1.068-4.057.534-3.833Z" fill="#1A2E35"></path><path d="M178.543 89.067c.293.277.552.708.948.829.448.12.879-.207 1.241-.535.034-.035.069 0 .051.052-.12.725-.534 1.433-1.327 1.398-.723-.035-1.12-.76-1.171-1.537 0-.138.138-.328.258-.207ZM169.703 88.135s-.104.034-.104.086c-.172 1.191-.551 2.52-1.688 2.728-.035 0-.035.069 0 .069 1.326.034 1.826-1.744 1.792-2.883Z" fill="#1A2E35"></path><path d="M168.858 86.719c-1.878-.466-2.671 3.315-.93 3.746 1.706.432 2.499-3.366.93-3.746Z" fill="#1A2E35"></path><path d="M168.014 86.806c-.344.138-.706.431-1.068.38-.414-.07-.638-.536-.827-.985-.017-.051-.052-.017-.069.035-.172.725-.086 1.52.568 1.813.604.259 1.207-.26 1.534-.95.069-.12 0-.345-.138-.293ZM174.028 99.426c-.327.241-.655.587-1.086.57-.413-.018-.878-.277-1.24-.467-.035-.017-.086 0-.052.052.241.501.862.863 1.413.846.552-.017.879-.449 1.068-.932.035-.07-.051-.104-.103-.07ZM169.841 96.63s.517 1.277 1.516 1.95c.362.242.793.414 1.275.414 1 0 1.241-.863 1.258-1.64 0-.639-.137-1.226-.137-1.226s-1.689.933-3.912.501Z" fill="#1A2E35"></path><path d="M171.357 98.58c.362.242.793.414 1.276.414.999 0 1.24-.863 1.258-1.64-1.034-.155-2.189.276-2.534 1.226Z" fill="#FF9CBF"></path><path d="M169.927 94.23s-.586 1.709-.741 2.537c0 .07.172.156.465.225h.035c1.413.5 2.981.276 4.101-.743.069-.069 0-.172-.104-.138-1.24.587-2.498.57-3.791.346 0-.242 1.086-2.9.965-2.935-.448-.121-1.395 0-1.964.069 1.103-3.609 2.774-6.992 3.808-10.6.035-.122-.138-.208-.207-.087-1.998 3.436-3.36 7.544-4.583 11.239-.155.466 1.671.155 2.016.086Z" fill="#1A2E35"></path><path d="M191.398 94.713c-2.809-.345-2.274-6.284-2.274-6.284s-5.635-1.123-5.859-9.582c0 0-.638 3.798 1.154 7.2 0 0-9.702-3.057-12.217-12.207 0 0 .809 4.575 2.085 6.388 0 0-3.929-2.003-5.273-5.784 0 0-2.706 4.455-4.308 5.508 0 0 1.482-23.238 22.143-11.447 0 0 9.116 1.779 11.132 10.48s-6.565 15.728-6.565 15.728h-.018Z" fill="#1A2E35"></path><path d="M191.743 100.755c-.31.069-.569.104-.827.104-.311 0-.586-.018-.827-.087a2.49 2.49 0 0 1-.965-.449 2.665 2.665 0 0 1-.586-.587 3.454 3.454 0 0 1-.535-1.07l1.569-4.54s4.514-4.956 6.806-3.28c2.292 1.674-1.568 9.218-4.618 9.909h-.017Z" fill="#FB6A55"></path><path d="M195.206 92.969s.052.069 0 .086c-2.136.57-3.446 2.313-4.446 4.178.707-.673 1.586-.984 2.499-.138.052.052 0 .12-.069.103-.81-.293-1.43-.224-2.085.38-.465.415-.81.984-1.172 1.502-.12.173-.431.035-.344-.172 0 0 0-.035.017-.052.276-2.607 2.757-5.974 5.583-5.87l.017-.017Z" fill="#1A2E35"></path><path d="M191.605 99.978a.818.818 0 1 1-1.551-.518.818.818 0 1 1 1.551.518ZM193.414 98.977c-.103.293-.431.466-.724.363a.58.58 0 0 1-.361-.725c.103-.294.43-.467.723-.363.293.104.466.431.362.725Z" fill="#fff"></path><path d="M191.588 71.578c-1.861-2.486-.759-9.979 3.222-12.758 5.48-3.816 14.423 3.246 11.115 9.996-3.309 6.75-12.907 4.679-14.337 2.762Z" fill="#1A2E35"></path><path d="M204.34 60.511c-1.654-1.484-3.584-2.675-5.635-3.159-1.017-.224-2.085-.224-3.016.138-.93.346-1.74 1.002-2.361 1.83-.654.812-1.12 1.796-1.533 2.78-.448.984-.707 2.02-.913 3.073-.345 2.106-.207 4.368.723 6.405-1.309-1.83-1.809-4.23-1.568-6.509.121-1.14.396-2.279.81-3.35.431-1.052.913-2.123 1.654-3.055.724-.932 1.706-1.744 2.878-2.123 1.172-.38 2.43-.346 3.55 0 2.257.69 4.067 2.21 5.428 3.97h-.017Z" fill="#1A2E35"></path><path d="M382.865 479.209c-2.619.846-77.045-.121-79.854-1.969-1.086-.673-1.568-11.549-1.792-24.705v-.414a435.43 435.43 0 0 1-.086-8.339v-1.174l3.619-38.69 49.783.501-4.911 38.327-.051 1.519-.293 7.925-.035.811s28.33 13.138 31.208 15.486c2.86 2.348 5.049 9.858 2.447 10.704l-.035.018Z" fill="#C36358"></path><path d="M382.865 479.208c-2.619.846-77.045-.12-79.854-1.968-1.086-.673-1.568-11.55-1.792-24.705v-.414a435.43 435.43 0 0 1-.086-8.339v-1.174l48.491.138-.051 1.519-.293 7.925-.035.811s28.33 13.138 31.208 15.486c2.86 2.348 5.049 9.858 2.447 10.704l-.035.017Z" fill="#ECECEC"></path><path d="M382.882 479.208c-1.344.432-21.557.38-41.322 0-3.981-.086-7.927-.172-11.701-.276-14.096-.38-25.745-.967-26.831-1.675-1.068-.673-1.568-11.239-1.775-24.153v-.966h.052l47.975.086v.829s28.312 13.121 31.173 15.486c2.86 2.348 5.049 9.875 2.447 10.704l-.018-.035Z" fill="#060907"></path><path d="M382.055 476.308c-12.545-.466-63.173-1.191-75.615-.708-.103 0-.103.069 0 .086 12.425.743 63.053 1.054 75.598.829.259 0 .259-.19 0-.207h.017ZM354.604 452.414c-4.928-.984-10.977-.311-14.785 3.177-.155.138.052.345.207.293 4.894-1.467 9.46-2.4 14.561-2.831.362-.035.379-.553.035-.622l-.018-.017ZM358.137 454.624c-4.928-.984-10.977-.311-14.785 3.176-.155.139.051.346.207.294 4.894-1.468 9.46-2.4 14.561-2.831.362-.035.379-.553.034-.622l-.017-.017ZM361.67 456.817c-4.929-.984-10.977-.311-14.785 3.176-.156.138.051.346.206.294 4.894-1.468 9.461-2.4 14.562-2.832.361-.034.379-.552.034-.621l-.017-.017Z" fill="#284A7C"></path><path d="M341.542 479.191c-3.98-.086-7.926-.172-11.7-.276-14.096-.38-25.745-.967-26.831-1.675-1.068-.673-1.568-11.239-1.775-24.153v-.966h.052c6.565 4.626 29.726 20.061 40.254 27.087v-.017Z" fill="#284A7C"></path><path d="M352.52 453.881h-53.61s10.788-125.426 10.374-127.618c-.534-2.814-3.705-15.504-7.91-32.095-1.326-5.196-2.739-10.755-4.221-16.522-3.998-15.607-8.41-32.664-12.235-47.494a29637.539 29637.539 0 0 0-10.253-39.501h45.424s5.29 16.815 11.959 38.689c10.873 35.548 25.4 84.493 26.83 96.388 2.327 19.215-6.358 128.153-6.358 128.153Z" fill="#4D73B8"></path><path d="M350.141 443.212c-8.185-.173-5.841-.242-14.027-.311-4.015-.034-30.328-.276-34.085.345-.086 0-.086.156 0 .173 3.739.622 30.07.397 34.085.345 8.186-.086 5.842-.138 14.027-.31.155 0 .155-.242 0-.242ZM319.382 317.096c-1.758-7.769-4.377-15.366-6.669-22.997a14589.198 14589.198 0 0 0-14.027-46.424 9807.003 9807.003 0 0 0-7.065-23.186c-1.207-3.901-2.396-7.803-3.619-11.705-1.189-3.815-2.551-7.596-3.619-11.429-.431-1.571-.672-.708-.121 1.278 1.138 4.005 2.241 8.01 3.412 12.016 2.31 7.907 4.636 15.814 6.98 23.721 4.652 15.728 9.357 31.456 14.061 47.166 2.361 7.873 4.739 15.763 7.1 23.635 1.12 3.764 2.24 7.545 2.895 11.429.689 4.04.723 8.149.465 12.224-.517 8.217-1.465 16.418-2.223 24.619-.758 8.217-1.516 16.435-2.275 24.636a23883.384 23883.384 0 0 0-4.497 49.048c-.19 2.072-.362 4.144-.534 6.215-.052.691.43.777.516.104 1.758-16.16 3.671-32.526 5.187-48.703 1.5-16.108 3.016-32.215 4.515-48.323.379-4.04.81-8.097.81-12.172 0-3.78-.465-7.492-1.31-11.17l.018.018Z" fill="#284A7C"></path><path d="M314.919 189.149c-3.154 24.446-9.168 70.283-13.545 103.535-10.253-40.296-26.727-103.535-26.727-103.535h40.272Z" fill="#284A7C"></path><path d="M326.085 479.934c-2.602.846-77.045.155-79.854-1.675-1.086-.673-1.62-11.55-1.878-24.705v-.415c-.069-2.71-.104-5.507-.121-8.338 0-.398 0-.777-.017-1.174-.173-18.991 1.189-38.69 1.189-38.69l48.646.311-1.361 38.327-.052 1.519-.275 7.942-.035.811s28.364 13.035 31.259 15.365c2.861 2.331 5.084 9.841 2.482 10.687l.017.035Z" fill="#C36358"></path><path d="M326.085 479.933c-2.602.846-77.045.156-79.854-1.674-1.086-.674-1.62-11.55-1.878-24.706v-.414c-.069-2.71-.104-5.507-.121-8.339 0-.397 0-.777-.017-1.174l48.491-.034-.051 1.519-.276 7.942-.035.811s28.365 13.035 31.26 15.365c2.86 2.331 5.083 9.841 2.481 10.687v.017Z" fill="#ECECEC"></path><path d="M326.085 479.933c-2.602.846-77.045.156-79.854-1.674-1.085-.674-1.619-11.55-1.878-24.706v-.414l48.026-.086-.034.811s28.364 13.035 31.259 15.365c2.861 2.331 5.083 9.841 2.481 10.687v.017Z" fill="#060907"></path><path d="M325.275 477.033c-12.545-.432-63.173-.949-75.614-.414-.104 0-.104.069 0 .086 12.424.691 63.052.812 75.614.553.259 0 .259-.19 0-.208v-.017ZM297.721 453.243c-4.928-.967-10.977-.259-14.785 3.228-.155.138.051.346.207.294 4.876-1.485 9.443-2.434 14.544-2.901.361-.034.379-.552.017-.621h.017ZM301.254 455.435c-4.929-.967-10.977-.259-14.785 3.229-.156.138.051.345.206.293 4.894-1.485 9.444-2.434 14.544-2.9.362-.035.379-.553.017-.622h.018ZM304.804 457.611c-4.929-.967-10.977-.259-14.786 3.228-.155.138.052.345.207.294 4.894-1.485 9.443-2.435 14.544-2.901.362-.034.379-.552.017-.621h.018Z" fill="#284A7C"></path><path d="M318.606 190.651s-1.051 21.77-6.031 39.017a69.588 69.588 0 0 1-1.292 4.178s-5.187 1.882-13.097 6.734c0 0-.517 17.523-1.051 37.066-.586 21.84-1.189 46.217-1.051 51.379.448 19.336-2.413 125.651-2.413 125.651l-53.592.224s9.685-118.727 9.616-125.806c-.104-11.377 2.602-61.703 4.687-98.39 1.275-22.616 5.014-40.036 5.014-40.036h59.228l-.018-.017Z" fill="#4D73B8"></path><path d="M291.845 443.609c-8.185-.138-5.842-.207-14.027-.259-4.015-.017-30.329-.138-34.085.501-.087 0-.087.155 0 .173 3.739.604 30.07.259 34.085.207 8.185-.121 5.842-.173 14.027-.38.155 0 .155-.242 0-.242ZM261.223 196.935c-.982 29.954-2.033 59.908-3.36 89.862-1.344 30.04-8.375 137.58-10.184 154.292 0 .103.155.155.172.034 3.895-29.712 6.083-73.701 7.996-103.603 1.913-29.902 3.222-59.856 4.239-89.793.569-16.936 1.017-33.872 1.516-50.826 0-.242-.362-.225-.379.017v.017ZM313.523 231.05c-5.342 2.123-10.443 5.024-15.319 8.045-.19.121-.052.414.155.311 5.17-2.521 10.443-4.938 15.474-7.735.397-.224.104-.777-.31-.621Z" fill="#284A7C"></path><path d="M313.816 212.577c-.362 1.916-.81 3.798-1.224 5.697-.379 1.778-.672 3.591-1.137 5.352-.448 1.709-1.189 3.263-2.481 4.489-.69.656-1.465 1.226-2.206 1.812-.396.329-.827.622-1.258.95.052-.259.103-.501.138-.76l.362-2.175c.275-1.605.534-3.211.775-4.834.483-3.159.931-6.371 1.585-9.495.035-.121-.172-.173-.189-.052-.793 3.107-1.654 6.18-2.344 9.305-.344 1.537-1.533 9.116-1.585 9.668a26.76 26.76 0 0 0-.121 1.675c-.017.553-.12 1.157 0 1.709.035.138.207.121.259.018.276-.484.344-1.123.482-1.658.138-.535.259-1.088.362-1.64.035-.19.069-.397.086-.604.741-.449 1.448-1.053 2.137-1.554.758-.552 1.517-1.07 2.223-1.675 1.362-1.156 2.206-2.555 2.723-4.264.534-1.761.689-3.626.896-5.456.241-2.158.413-4.316.724-6.474.017-.121-.173-.172-.19-.051l-.017.017Z" fill="#284A7C"></path><path d="M309.491 123.752s-.104-.035-.086.034c.465 2.434-.707 4.869-2.74 6.233-2.051 1.381-4.532 1.812-6.979 1.553a21.583 21.583 0 0 1-7.238-2.106c-2.05-1.018-4.411-2.831-4.653-5.283 0-.121-.189-.103-.172 0 .293 1.899 1 3.678 2.447 4.99 1.654 1.502 3.774 2.313 5.894 2.883 4.101 1.105 9.46 1.208 12.338-2.504 1.275-1.64 1.826-3.815 1.206-5.818l-.017.018Z" fill="#1A2E35"></path><path d="M327.309 212.732c-1.861 1.606-72.358 3.833-72.686 3.315-.31-.466 9.685-80.918 36.808-94.385 5.997-2.969 15.302.035 16.612 1.727 10.822 14.07 20.455 88.342 19.283 89.361l-.017-.018Z" fill="#4D73B8"></path><path d="m300.099 138.184 2.93-5.904 5.014 5.11-1.241 4.42-4.583.518-2.12-4.144ZM302.219 142.328l-2.912 51.482 5.893 16.332 6.858-17.04-5.255-51.292-4.584.518Z" fill="#27BFF1"></path><path d="M289.777 120.402s3.981 21.339 4.773 40.416c2.103 51.672-1.809 143.364-3.239 150.045-.828 3.833-45.218-3.056-45.218-3.056s4.05-105.865 18.818-147.421c13.699-38.517 24.866-39.984 24.866-39.984Z" fill="#ECECEC"></path><path d="M256.019 248.107c-.258 8.183.121 17.42 1.861 19.129 3.257 3.177 11.908 2.918 14.63 2.9 2.689-.017 12.425-.034 14.7-5.041.999-2.21 1.275-13.622 1.24-17.661 0-1.64-.379-9.703-.499-10.618-.035-.207-.604-.19-.621-.052-.138.932-.052 4.282-.103 4.903-15.613 2.003-25.28.328-30.294-.638 0-1.502 0-2.676-.018-4.196 2.154.535 9.375 1.399 14.786 1.399 5.41 0 13.561-.812 16.215-1.157.121 0 .035-.622-.155-.622-2.033.035-9.081.726-16.198.726-7.117 0-15.165-1.192-15.182-1.192-.241.069-.241 8.184-.362 12.103v.017Zm2.809 18.197c-1.723-1.986-1.93-7.7-1.93-11.101 0-4.696.017-8.46.035-13.173 12.028 2.797 25.245 1.416 30.277.397 0 .207.086 10.117 0 13.294-.121 4.039-.242 7.682-1.793 9.788-1.327 1.796-5.066 3.609-13.665 3.591-6.221 0-11.459-1.139-12.907-2.796h-.017Z" fill="#A8A8A8"></path><path d="M307.164 122.681s8.564 38.051 9.788 44.197c1.241 6.146 10.736 134.11 12.959 138.685.758 1.554 24.78-5.352 24.78-5.352s-38.118-156.571-40.686-164.15c-4.446-13.069-6.841-13.38-6.841-13.38Z" fill="#ECECEC"></path><path d="M307.991 126.272c1.775 5.577 8.547 25.137 12.028 39.104 2.344 9.375 2.981 17.161 3.481 19.215 0 0-21.402-8.338-26.331-8.632-7.565-.466-20.661 14.64-17.801 16.798 4.498 3.401 26.176 15.348 43.805 19.751 9.581 2.4 28.571-8.857 27.709-18.749-1.206-13.881-23.866-51.655-32.707-62.515-4.583-5.628-12.39-11.757-10.218-4.972h.034Z" fill="#C36358"></path><path d="M352.072 196.745c-1.052 9.893-13.924 17.489-21.127 17.506-12.425 0-48.94-13.052-48.94-13.052l16.095-27.001s24.763 10.117 25.401 10.393c-.173-.76-5.015-24.585-7.324-32.526-.121-.432-.276-.881-.396-1.364a451.361 451.361 0 0 0-2.637-8.252c-.569-1.761-1.172-3.574-1.775-5.387-2.602-7.786-5.152-15.21-5.152-15.21 4.222.95 8.288 3.453 14.75 11.118 6.462 7.666 32.845 47.46 31.105 63.775Z" fill="#ECECEC"></path><path d="M292 195.727c1.155-1.916 2.309-3.816 3.464-5.715 1.137-1.864 2.274-3.729 3.429-5.593 1.189-1.917 2.43-3.833 3.412-5.87.017-.035-.035-.069-.069-.035-1.396 1.64-2.585 3.47-3.757 5.266a314.71 314.71 0 0 0-3.601 5.645 232.847 232.847 0 0 0-3.395 5.611c-1.137 1.934-2.292 3.954-3.153 6.026-.035.086.069.172.137.086 1.293-1.709 2.43-3.591 3.533-5.421ZM334.408 213.751c-1.999.794-4.239.5-6.289.19-1.207-.173-6.514-1.174-7.083-1.157-.103 0-.086.207 0 .224.896.173 6.29 1.381 7.634 1.606 1.982.345 4.118.552 5.756-.811.034-.018 0-.07-.035-.07l.017.018Z" fill="#1A2E35"></path><path d="m330.996 189.149-7.478-4.558c-.173-.777-5.015-24.601-7.324-32.543-.121-.432-.276-.881-.396-1.364a443.675 443.675 0 0 0-2.637-8.252l17.853 46.717h-.018Z" fill="#A8A8A8"></path><path d="M337.183 192.93c-2.051-1.726-4.274-3.315-6.514-4.765a38.508 38.508 0 0 0-3.464-2.02c-1.258-.656-2.602-1.157-3.86-1.83-.103-.052-.172.104-.086.155 1.172.622 2.275 1.451 3.395 2.159 1.172.725 2.344 1.45 3.533 2.158 2.326 1.381 4.618 2.848 6.927 4.247.052.034.121-.052.069-.087v-.017Z" fill="#1A2E35"></path><path d="M329.928 187.422c-1.947-.086-13.441-3.919-15.251-2.417-10.959 9.185-14.13 7.01-16.422 8.149-17.697 8.84-41.237 19.06-49.387 18.628-12.373-.638-16.681-11.325-14.027-21.028 5.221-19.18 33.62-55.47 46.044-64.827 6.583-4.955 5.618 3.055 2.499 11.636-1.827 5.024-4.946 12.482-8.099 19.802-2.809 6.509-10.185 23.134-10.323 23.531l-.017.052c0 .052.035.052.138.035.552-.069 15.595-6.095 30.536-9.012 5.255-1.019 16.181-2.279 19.937-.328 2.24 1.174 2.206 2.538 2.206 2.538s1.861-.052 3.705 1.657c1.223 1.139 1.534 2.676 1.534 2.676s1.999.397 2.981 1.64c1.172 1.468 1.189 2.952 1.189 2.952 2.688.898 2.757 4.282 2.757 4.282v.034Z" fill="#C36358"></path><path d="M313.42 173.525c-1.568-.07-3.102.069-4.653.241-.103 0-.103.173 0 .173 1.516-.069 3.033-.017 4.549.017 1.5.035 3.033.104 4.532.225-1.482-.346-2.929-.57-4.446-.639l.018-.017ZM322.949 178.445c-2.637-.898-4.739-1.433-8.134-1.208-.103 0-.103.172 0 .172 3.206 0 5.273.449 8.134 1.105.034 0 .034-.052 0-.052v-.017ZM327.136 183.055c-2.619-1.261-4.67-1.744-7.651-1.917-.103 0-.155.156-.034.156 2.843.448 4.911.984 7.634 1.864.068.017.103-.086.051-.121v.018ZM294.878 172.109c-1.293.086-2.602.397-3.877.622-1.362.259-2.723.535-4.05.897-2.671.708-5.29 1.606-7.875 2.59-.104.035-.052.19.052.155a253.21 253.21 0 0 1 7.892-2.089 325.73 325.73 0 0 0 3.877-1.018c1.327-.346 2.706-.587 4.015-1.002.086-.034.069-.172-.034-.172v.017Z" fill="#1A2E35"></path><path d="M284.487 174.267c2.757-.759 3.981-.69 3.981-.69l13.837 26.967S259 213.302 250.246 213.665c-8.753.379-18.248-7.096-17.766-18.042.689-15.4 27.933-50.861 41.392-64.396 6.169-6.198 13.182-10.549 14.837-9.375 1.947 1.382-2.223 9.41-4.532 15.435C279.92 148.405 265.083 181 265.083 181s16.113-5.818 19.404-6.716v-.017Z" fill="#ECECEC"></path><path d="M288.33 173.559c-2.396 0-12.942 2.987-18.129 4.852-5.169 1.864-10.184 4.143-14.923 6.957-2.688 1.588-5.238 3.332-7.772 5.145-.086.069 0 .207.087.138 4.635-2.918 9.563-5.49 14.544-7.803 4.945-2.297 9.96-4.472 15.164-6.147 2.964-.949 8.03-2.348 10.891-2.917.81-.156.206-.242.138-.242v.017Z" fill="#1A2E35"></path><path d="M279.524 150.183c-.707 1.001-1.43 2.003-2.033 3.073-.035.052-.052.104-.087.155a270.403 270.403 0 0 0 2.792-7.389c.052-.155-.19-.259-.258-.103-4.188 9.029-8.134 18.179-11.977 27.364-1.068 2.572-2.033 5.162-3.033 7.769-.034.086.121.138.155.069 1.138-2.21 2.275-4.403 3.326-6.664a341.953 341.953 0 0 0 3.05-6.82 428.036 428.036 0 0 0 5.049-12.033c.483-.691.948-1.381 1.413-2.089.655-1.036 1.224-2.124 1.775-3.211.069-.121-.103-.207-.172-.104v-.017ZM292.327 194.259c-1.017-1.985-2.016-3.988-3.015-5.973a605.44 605.44 0 0 1-2.93-5.87c-.999-2.02-1.964-4.092-3.171-6.008-.017-.035-.086 0-.069.034.655 2.055 1.569 4.023 2.482 5.991.93 2.02 1.913 4.04 2.878 6.043a230.605 230.605 0 0 0 2.964 5.852c1.033 1.986 2.136 4.04 3.429 5.87.051.069.189.035.155-.069-.758-2.003-1.758-3.971-2.723-5.87Z" fill="#1A2E35"></path><path d="M302.908 200.63c-1.12-2.607-2.964-5.197-4.291-7.683-.052-.086-.19 0-.138.086 1.206 2.331 2.275 4.834 3.412 7.199-5.962 2.055-12.269 3.833-18.335 5.594-6.221 1.796-12.476 3.488-18.8 4.903-3.533.794-7.083 1.675-10.633 2.383-.224.052-.172.224.052.19 6.359-.812 12.649-2.262 18.852-3.833 6.324-1.606 12.597-3.436 18.835-5.352 3.515-1.088 11.149-3.28 11.063-3.487h-.017Z" fill="#1A2E35"></path><path d="M304.545 131.296c-1.189.483-10.305-1.123-13.665-5.836-.224-.328-.138-4.04-.224-8.563-.069-2.745-.207-5.801-.552-8.563l17.888 2.158s-1.017 6.025-.414 10.859c.052.397.138.777.258 1.123 0 .051.035.12.052.189.603 2.124-.965 7.666-3.343 8.65v-.017Z" fill="#C36358"></path><path d="M307.836 122.457s.035.12.052.189c-11.459 2.124-15.905-10.099-17.06-14.243l17.181 2.072s-1.017 6.025-.414 10.859c.052.397.138.777.259 1.123h-.018Z" fill="#1A2E35"></path><path d="M284.762 83.732c-1.912 6.216 1.327 24.188 5.739 28.193 6.393 5.818 16.853 6.405 21.798-1.295 4.791-7.458.156-30.8-4.773-34.442-7.255-5.37-19.955-1.623-22.764 7.562v-.018Z" fill="#C36358"></path><path d="M300.013 94.868s-.086.07-.069.121c.258 1.209.327 2.624-.689 3.228-.035.018-.018.087.017.07 1.31-.432 1.172-2.314.741-3.419Z" fill="#1A2E35"></path><path d="M298.703 93.797c-1.964.19-1.43 4.127.379 3.954 1.792-.173 1.258-4.109-.379-3.954ZM307.078 94.108s.103.052.103.087c.121 1.226.483 2.607 1.638 2.866.034 0 .034.069 0 .069-1.362 0-1.81-1.848-1.741-3.022Z" fill="#1A2E35"></path><path d="M307.991 92.693c1.93-.415 2.62 3.487.828 3.884-1.758.38-2.447-3.539-.828-3.884ZM296.911 92.21c.517-.208.965-.484 1.447-.743.552-.293 1.017-.466 1.327-1.036.173-.31 0-.794-.275-.984-.655-.449-1.431-.259-2.103.07-.741.345-1.223.81-1.568 1.553-.345.708.483 1.433 1.155 1.157l.017-.017ZM309.25 90.5c-.552 0-1.069-.12-1.62-.19-.621-.086-1.12-.086-1.603-.518-.258-.224-.293-.742-.086-1.018.465-.639 1.241-.725 1.999-.674.81.07 1.413.346 1.999.916.569.552.052 1.501-.689 1.484ZM300.426 106.332c.328.241.672.604 1.12.569.431-.017.896-.276 1.258-.483.035-.017.086 0 .069.052-.258.518-.879.897-1.447.863-.569-.017-.896-.466-1.103-.95-.035-.069.069-.103.103-.069v.018Z" fill="#1A2E35"></path><path d="M301.202 102.516c.827.967 1.895 1.416 3.015 1.468.5.034 1-.018 1.5-.138.103 0 .189-.035.275-.069.087-.018.173-.052.259-.07.138-.034.207-.172.207-.31 0 0 0-.087-.035-.138v-.121c-.103-.95-.379-2.348-.379-2.348.362.121 2.223.673 2.12.19-.793-4.023-1.672-8.494-3.309-12.344-.052-.121-.241-.07-.224.069.603 3.901 1.896 7.665 2.568 11.567-.586-.138-1.551-.397-2.034-.328-.12.052.603 2.728.603 3.142v.052c-1.551.414-2.791.103-4.463-.76-.103-.052-.189.035-.103.121v.017Z" fill="#1A2E35"></path><path d="M305.096 103.448s-.672 1.243-1.757 1.796c-.397.207-.845.328-1.327.259-1-.121-1.155-1.019-1.069-1.796.052-.656.276-1.226.276-1.226s1.603 1.14 3.894.967h-.017Z" fill="#1A2E35"></path><path d="M303.339 105.244c-.397.207-.845.328-1.327.259-1-.121-1.155-1.019-1.069-1.795 1.051-.035 2.189.535 2.413 1.536h-.017Z" fill="#FF9581"></path><path d="M285.555 100.082c3.584-.587 5.066-5.973 5.135-9.944.052-2.918-1.051-8.788 1.81-10.79 2.843-1.986 6.152.103 9.632-.536 1.482-.276 2.775-1.882 4.36-1.882 2.568 0 5.153 6.958 5.153 6.958s-.845-9.754-10.064-10.48c-8.892-.69-15.302 2.521-17.094 9.013-2.309 8.373 1.068 17.678 1.068 17.678v-.017Z" fill="#1A2E35"></path><path d="M288.571 98.39s-4.153-5.732-6.755-4.247c-2.602 1.502.586 9.858 3.705 10.963 3.102 1.088 4.17-1.761 4.17-1.761l-1.12-4.955Z" fill="#C36358"></path><path d="M282.781 96.525s-.052.07 0 .087c2.188.846 3.36 2.831 4.187 4.903-.655-.794-1.551-1.209-2.602-.432-.052.035 0 .121.069.121.879-.207 1.534-.069 2.137.639.431.501.741 1.122 1.051 1.709.103.19.448.086.379-.138 0 0 0-.035-.017-.052 0-2.762-2.206-6.595-5.187-6.82l-.017-.017Z" fill="#1A2E35"></path><path d="m307.492 120.747-4.101 10.359-12.873-13.018-3.619 4.213s12.632 20.734 12.718 19.785l4.222-8.926 6.169 6.181-.569-15.555-1.93-3.022-.017-.017Z" fill="#4D73B8"></path><path d="M310.145 131.606c-.172-2.572-.293-5.162-.586-7.717 0-.086-.155-.138-.172-.017-.5 2.486.241 12.292.241 14.64l-.034-.034c-.259-.259-5.721-5.439-5.773-5.352-.913 1.415-4.015 7.924-4.222 8.511-1.999-3.297-10.477-16.263-12.838-19.388-.069-.086-.207 0-.155.086 1.775 3.471 12.717 20.597 12.873 20.562.103.087 3.946-7.924 4.411-9.443.931 1.122 6.428 6.957 6.445 6.577.12-2.572-.017-5.887-.207-8.442l.017.017Z" fill="#1A2E35"></path><path d="M294.826 172.126c-7.6 1.468-16.388 4.126-20.334 5.404-.104.034-.207.052-.293.086-3.481 1.14-5.635 2.003-6.152 2.055-.034-.018-.069-.052-.103-.069a4.192 4.192 0 0 0-1.017-.656c-.931-.398-10.064-2.089-9.667-4.938.396-2.814 4.135-2.417 4.687-2.348-.586-.173-5.515-1.64-3.74-4.04 1.258-1.709 6.187-1.157 6.686-1.105-.499-.19-4.997-1.968-3.256-4.419 1.24-1.761 6.737-1.192 7.375-1.054-.5-.224-4.549-1.156-2.516-3.245 1.413-1.451 11.718.725 16.198 3.297 6.669 3.85 12.132 10.998 12.132 10.998v.034Z" fill="#C36358"></path><path d="M274.492 177.53c-.104.034-.207.052-.293.086-1.517-1.329-7.375-4.903-12.08-5.783-.293-.052-.293-.225 0-.19 5.842.604 10.908 4.385 12.356 5.887h.017ZM265.1 166.74c6.48 1.692 9.34 3.314 14.768 7.233.069.052.173-.051.104-.12-5.015-4.248-8.168-6.388-14.803-7.269-.293-.034-.362.087-.069.156ZM269.184 161.215c6.187 2.037 9.409 3.695 14.234 8.097.121.104.276-.034.172-.155-4.497-4.921-8.512-6.992-14.32-8.115-.396-.069-.465.035-.068.173h-.018Z" fill="#1A2E35"></path><path d="M261.757 62.497c-1.258 12.103-12.079 20.89-24.159 19.63a21.945 21.945 0 0 1-12.58-5.68l-11.011 1.623 5.497-9.53c-1.344-3.263-1.896-6.871-1.517-10.618 1.258-12.102 12.08-20.89 24.16-19.63 12.08 1.26 20.851 12.103 19.593 24.205h.017Z" fill="#fff"></path><path d="M261.757 62.497c-.465 4.023-1.93 7.96-4.446 11.17-.568.846-1.327 1.537-1.999 2.296-.758.674-1.482 1.399-2.326 1.969-1.603 1.243-3.412 2.21-5.308 2.952-1.878.794-3.911 1.174-5.927 1.416-1.017.051-2.034.155-3.05.051-1.017-.017-2.034-.138-3.051-.31-4.032-.725-7.84-2.625-10.873-5.387l.258.086-10.994 1.692-.792.121.396-.708 5.48-9.547v.38c-2.688-6.284-2.085-13.777 1.327-19.647a22.674 22.674 0 0 1 6.892-7.355c2.809-1.899 6.049-3.073 9.392-3.522a22.315 22.315 0 0 1 9.943.915 22.456 22.456 0 0 1 8.478 5.214c4.86 4.627 7.29 11.567 6.583 18.197l.017.017Zm0 0c.672-6.647-1.826-13.535-6.686-18.093a22.157 22.157 0 0 0-8.478-5.007 22.11 22.11 0 0 0-9.788-.742c-3.24.5-6.393 1.71-9.081 3.591a22.47 22.47 0 0 0-6.583 7.2c-1.672 2.83-2.533 6.077-2.792 9.322a22.044 22.044 0 0 0 1.551 9.6l.086.19-.103.172-5.532 9.512-.396-.587 11.011-1.553h.156l.103.086a21.69 21.69 0 0 0 10.529 5.438c.982.207 1.982.328 2.981.363.999.103 1.999.034 3.016 0 1.999-.207 3.997-.535 5.876-1.295 1.878-.708 3.705-1.64 5.307-2.866.845-.57 1.551-1.278 2.327-1.95.672-.743 1.413-1.451 1.999-2.28 2.516-3.176 4.015-7.095 4.497-11.118v.017Z" fill="#1A2E35"></path><path d="M242.44 48.357h-5.187v23.67h5.187v-23.67Z" fill="#27BFF1"></path><path d="M251.66 57.594h-23.626v5.196h23.626v-5.196Z" fill="#27BFF1"></path></g><defs><clipPath id="a"><path fill="#fff" d="M0 0h681v491H0z"></path></clipPath></defs></svg> 